<?xml version="1.0" encoding="UTF-8"?>
<svg version="1.1" xmlns="http://www.w3.org/2000/svg" width="500" height="500">
<path d="M0 0 C2.41281744 -0.00271413 4.82563404 -0.00627743 7.2384491 -0.01062012 C13.08198525 -0.01875629 18.92546352 -0.01761639 24.76900136 -0.01179484 C29.52303257 -0.00725692 34.2770494 -0.00667459 39.03108215 -0.00884247 C39.7106574 -0.00914893 40.39023265 -0.0094554 41.09040108 -0.00977115 C42.47143837 -0.01041068 43.85247566 -0.01105911 45.23351294 -0.01171634 C58.1487495 -0.01740381 71.06395757 -0.01088668 83.97918946 -0.0001156 C95.03350384 0.00881846 106.08777621 0.00726598 117.14208984 -0.00195312 C130.01473032 -0.01268383 142.88734589 -0.01685464 155.75999022 -0.0107286 C157.13562234 -0.01009158 158.51125447 -0.00946283 159.8868866 -0.00884247 C160.90183975 -0.00837964 160.90183975 -0.00837964 161.93729702 -0.00790747 C166.67929892 -0.00618891 171.42128487 -0.00907741 176.1632843 -0.01380157 C182.55902786 -0.01960451 188.95469253 -0.01552438 195.35042763 -0.00401306 C197.68921592 -0.0013822 200.02801092 -0.00210445 202.36679649 -0.00653839 C226.22183215 -0.04757306 251.70646353 1.44741676 269.95898438 19.25878906 C269.95898438 19.91878906 269.95898438 20.57878906 269.95898438 21.25878906 C270.61898438 21.25878906 271.27898437 21.25878906 271.95898438 21.25878906 C271.95898438 21.91878906 271.95898438 22.57878906 271.95898438 23.25878906 C272.61898438 23.25878906 273.27898437 23.25878906 273.95898438 23.25878906 C287.5805594 37.47718568 293.30511561 56.72812025 293.21295166 75.99180603 C293.21607164 77.013626 293.21919162 78.03544598 293.22240615 79.08823019 C293.23032525 82.48099956 293.22408634 85.87358702 293.21777344 89.26635742 C293.22048602 91.71153365 293.22404845 94.15670906 293.22839355 96.60188293 C293.23654558 102.53539438 293.23538124 108.46885932 293.22956827 114.40236943 C293.22503742 119.22847656 293.22444501 124.05456953 293.22661591 128.88067818 C293.22692237 129.56956342 293.22722884 130.25844867 293.22754459 130.96820923 C293.22818409 132.36801358 293.22883252 133.76781793 293.22948977 135.16762228 C293.23518285 148.27115755 293.22865147 161.37466477 293.21788904 174.47819544 C293.20895645 185.70089108 293.21050515 196.92354534 293.21972656 208.14624023 C293.23045073 221.20378775 293.23463154 234.26131071 293.22850204 247.31886202 C293.22786499 248.71360274 293.22723625 250.10834346 293.22661591 251.50308418 C293.22630735 252.18917834 293.2259988 252.8752725 293.2256809 253.58215738 C293.22396024 258.39719948 293.22685548 263.21222589 293.23157501 268.02726555 C293.23779856 274.5189869 293.23331212 281.01064874 293.2217865 287.5023632 C293.21915133 289.87907787 293.21988538 292.25579913 293.22431183 294.63251114 C293.2716407 322.63579694 293.2716407 322.63579694 287.83398438 336.00878906 C287.55683594 336.71777344 287.2796875 337.42675781 286.99414062 338.15722656 C286.32611499 339.86184371 285.64413908 341.56098433 284.95898438 343.25878906 C284.29898437 343.25878906 283.63898438 343.25878906 282.95898438 343.25878906 C282.87648438 343.79503906 282.79398437 344.33128906 282.70898438 344.88378906 C278.50443919 358.19818214 263.70018205 368.75032928 251.90429688 374.91113281 C234.91367293 382.6853573 217.33473648 382.55530887 199.06323242 382.53344727 C196.653807 382.53780026 194.24438295 382.54298536 191.83496094 382.54893494 C185.99530004 382.56089126 180.1556927 382.56348399 174.31602105 382.56113467 C169.56388915 382.5593438 164.81177113 382.56111754 160.05964088 382.56535912 C159.38050759 382.5659543 158.7013743 382.56654949 158.00166121 382.56716272 C156.62151386 382.56837461 155.2413665 382.56958874 153.86121915 382.5708051 C140.94879057 382.58165506 128.03638818 382.57953027 115.12395815 382.57342025 C103.34384963 382.56825376 91.56382387 382.579504 79.78373172 382.59851847 C67.65142197 382.61794943 55.51915126 382.62614366 43.38682586 382.62239522 C36.59009278 382.62049107 29.7934301 382.62289335 22.99670982 382.63710976 C16.60176743 382.64974253 10.20698991 382.64769256 3.81204987 382.63469887 C1.47571315 382.63234537 -0.86063538 382.63502335 -3.19695854 382.64332199 C-19.55706306 382.69720754 -34.42139132 381.55294057 -50.04101562 376.25878906 C-50.04101562 375.59878906 -50.04101562 374.93878906 -50.04101562 374.25878906 C-50.75128906 374.16339844 -51.4615625 374.06800781 -52.19335938 373.96972656 C-55.51800685 373.13970483 -57.7474548 371.76664418 -60.60351562 369.88378906 C-61.53292969 369.27792969 -62.46234375 368.67207031 -63.41992188 368.04785156 C-68.35287921 364.68079573 -68.35287921 364.68079573 -70.04101562 363.25878906 C-70.04101562 362.59878906 -70.04101562 361.93878906 -70.04101562 361.25878906 C-70.70101562 361.25878906 -71.36101562 361.25878906 -72.04101562 361.25878906 C-72.04101562 360.59878906 -72.04101562 359.93878906 -72.04101562 359.25878906 C-72.70101562 359.25878906 -73.36101562 359.25878906 -74.04101562 359.25878906 C-74.04101562 358.59878906 -74.04101562 357.93878906 -74.04101562 357.25878906 C-74.70101562 357.25878906 -75.36101562 357.25878906 -76.04101562 357.25878906 C-87.93014595 343.40856507 -93.36667449 326.42054058 -93.30844116 308.44515991 C-93.31297228 307.40251531 -93.31750339 306.35987071 -93.32217181 305.28563082 C-93.33476143 301.8161884 -93.33319894 298.34690405 -93.33154297 294.87744141 C-93.33753166 292.37978922 -93.344338 289.88213889 -93.35189819 287.38449097 C-93.36770269 281.31781997 -93.37400515 275.25121034 -93.37512295 269.18452446 C-93.37607629 264.2478238 -93.38020083 259.31113587 -93.3865242 254.37443924 C-93.40412204 240.3481576 -93.41336552 226.32190645 -93.41186325 212.29561369 C-93.41178334 211.54080043 -93.41170343 210.78598717 -93.41162109 210.00830078 C-93.41153933 209.25255538 -93.41145757 208.49680998 -93.41137333 207.71816321 C-93.41056116 195.48195391 -93.4296852 183.24586792 -93.45789783 171.00969426 C-93.48670235 158.41643348 -93.50043393 145.82323268 -93.49871027 133.22993815 C-93.49804891 126.1715636 -93.50342901 119.11331829 -93.52506638 112.0549736 C-93.54530332 105.41136671 -93.54452755 98.76798465 -93.53003311 92.12434769 C-93.52795208 89.69609426 -93.53260338 87.26782353 -93.54475403 84.83959961 C-93.62996978 66.61903958 -92.32851833 51.398511 -83.04101562 35.25878906 C-82.57050781 34.42863281 -82.1 33.59847656 -81.61523438 32.74316406 C-80.50271286 30.86598912 -79.28307952 29.05288135 -78.04101562 27.25878906 C-77.38101563 27.25878906 -76.72101563 27.25878906 -76.04101562 27.25878906 C-75.79351562 26.68128906 -75.54601562 26.10378906 -75.29101562 25.50878906 C-73.85801574 22.92938927 -72.25676886 21.19757314 -70.04101562 19.25878906 C-69.38101563 19.25878906 -68.72101563 19.25878906 -68.04101562 19.25878906 C-68.04101562 18.59878906 -68.04101562 17.93878906 -68.04101562 17.25878906 C-65.22898988 14.99188414 -62.1091253 13.15876524 -59.04101562 11.25878906 C-58.32171875 10.80890625 -57.60242188 10.35902344 -56.86132812 9.89550781 C-39.26083718 -0.51650423 -19.76085723 -0.03746323 0 0 Z M71.95117188 41.26660156 C65.76356398 48.69690895 63.36406989 55.91275546 63.67382812 65.55566406 C64.42574046 72.68338102 67.04579147 78.98644463 71.95898438 84.25878906 C74.57756132 86.04841726 74.57756132 86.04841726 76.95898438 87.25878906 C77.28898437 87.91878906 77.61898437 88.57878906 77.95898438 89.25878906 C77.29898438 89.25878906 76.63898438 89.25878906 75.95898438 89.25878906 C75.95898438 89.91878906 75.95898438 90.57878906 75.95898438 91.25878906 C75.25773437 91.44441406 74.55648437 91.63003906 73.83398438 91.82128906 C66.59155783 95.44250234 63.15874887 103.17037555 59.70898438 110.13378906 C58.85481374 111.84213034 57.99569025 113.54800712 57.13085938 115.25097656 C56.76057617 115.99718262 56.39029297 116.74338867 56.00878906 117.51220703 C54.95898438 119.25878906 54.95898438 119.25878906 52.95898438 120.25878906 C52.85714844 119.74703125 52.7553125 119.23527344 52.65039062 118.70800781 C51.70554259 115.36100375 50.30383946 112.24312953 48.89648438 109.07128906 C48.43230103 108.01723877 48.43230103 108.01723877 47.95874023 106.94189453 C45.40144958 101.1724831 42.72389305 95.46346623 40.01367188 89.76464844 C37.55188037 84.5712152 35.20594792 79.3340022 32.89648438 74.07128906 C29.93451536 67.32777356 26.76981132 60.72777082 23.40429688 54.17675781 C22.12673399 51.59746193 21.02797901 48.93127566 19.95898438 46.25878906 C8.40898437 46.25878906 -3.14101562 46.25878906 -15.04101562 46.25878906 C-11.15742836 55.13555995 -7.39696704 63.69064085 -3.03710938 72.27441406 C-0.56548894 77.16956401 1.78647329 82.1216307 4.14648438 87.07128906 C4.84269897 88.53042725 4.84269897 88.53042725 5.55297852 90.01904297 C6.52188601 92.05034181 7.4905494 94.08175709 8.45898438 96.11328125 C11.01660446 101.47662389 13.57934066 106.83749856 16.14648438 112.19628906 C16.64728516 113.24236328 17.14808594 114.2884375 17.6640625 115.36621094 C20.90505561 122.11721239 24.20225086 128.83637698 27.63745117 135.4909668 C29.10862449 138.37517222 30.36694266 141.06176381 30.95898438 144.25878906 C31.61898437 144.25878906 32.27898437 144.25878906 32.95898438 144.25878906 C32.95898438 145.57878906 32.95898438 146.89878906 32.95898438 148.25878906 C35.72516 149.64187688 37.96916437 149.37089103 41.06054688 149.35644531 C42.27226562 149.35322266 43.48398438 149.35 44.73242188 149.34667969 C46.0034375 149.33830078 47.27445313 149.32992187 48.58398438 149.32128906 C50.50210938 149.31452148 50.50210938 149.31452148 52.45898438 149.30761719 C55.6256973 149.29580109 58.79231793 149.27932721 61.95898438 149.25878906 C63.60898438 145.95878906 65.25898438 142.65878906 66.95898438 139.25878906 C68.60898438 139.58878906 70.25898438 139.91878906 71.95898438 140.25878906 C71.95898438 140.91878906 71.95898438 141.57878906 71.95898438 142.25878906 C72.61898437 142.25878906 73.27898437 142.25878906 73.95898438 142.25878906 C73.95898438 142.91878906 73.95898438 143.57878906 73.95898438 144.25878906 C89.3858134 152.21514576 105.37009912 153.17848969 121.95898438 148.25878906 C127.80884233 145.67534926 132.85814996 142.17979036 136.95898438 137.25878906 C136.95898438 136.59878906 136.95898438 135.93878906 136.95898438 135.25878906 C137.61898437 135.25878906 138.27898437 135.25878906 138.95898438 135.25878906 C143.20540911 125.96973494 145.1024351 115.84571373 141.83398438 105.88378906 C139.2027107 100.08501058 135.30579434 94.76932086 129.95898438 91.25878906 C129.29898438 91.25878906 128.63898438 91.25878906 127.95898438 91.25878906 C127.95898438 90.59878906 127.95898438 89.93878906 127.95898438 89.25878906 C127.29898438 89.25878906 126.63898438 89.25878906 125.95898438 89.25878906 C125.95898438 88.26878906 125.95898438 87.27878906 125.95898438 86.25878906 C127.60898437 85.59878906 129.25898438 84.93878906 130.95898438 84.25878906 C130.95898438 83.59878906 130.95898438 82.93878906 130.95898438 82.25878906 C131.61898437 82.25878906 132.27898437 82.25878906 132.95898438 82.25878906 C133.77200762 80.80074737 134.58438569 79.34234591 135.39648438 77.88378906 C136.07517578 76.665625 136.07517578 76.665625 136.76757812 75.42285156 C140.09853542 69.37252258 139.67059385 62.05880073 138.95898438 55.25878906 C137.99997913 51.97974493 136.76169327 49.15599978 134.95898438 46.25878906 C134.29898438 46.25878906 133.63898438 46.25878906 132.95898438 46.25878906 C132.73210937 45.70191406 132.50523437 45.14503906 132.27148438 44.57128906 C127.98019657 37.01044864 121.11676319 34.6925059 113.33398438 32.00878906 C99.6157307 28.96941549 82.27690282 30.94087062 71.95117188 41.26660156 Z M14.95898438 288.25878906 C14.95898438 307.72878906 14.95898438 327.19878906 14.95898438 347.25878906 C28.15898437 347.25878906 41.35898438 347.25878906 54.95898438 347.25878906 C54.95898438 343.95878906 54.95898438 340.65878906 54.95898438 337.25878906 C45.71898437 337.25878906 36.47898438 337.25878906 26.95898438 337.25878906 C26.95898438 321.08878906 26.95898438 304.91878906 26.95898438 288.25878906 C22.99898437 288.25878906 19.03898437 288.25878906 14.95898438 288.25878906 Z M65.95898438 288.25878906 C65.95898438 307.72878906 65.95898438 327.19878906 65.95898438 347.25878906 C69.58898437 347.25878906 73.21898437 347.25878906 76.95898438 347.25878906 C76.95898438 327.78878906 76.95898438 308.31878906 76.95898438 288.25878906 C73.32898438 288.25878906 69.69898438 288.25878906 65.95898438 288.25878906 Z M90.95898438 288.25878906 C90.95898438 307.72878906 90.95898438 327.19878906 90.95898438 347.25878906 C94.58898437 347.25878906 98.21898437 347.25878906 101.95898438 347.25878906 C101.95898438 333.72878906 101.95898438 320.19878906 101.95898438 306.25878906 C102.61898437 306.25878906 103.27898437 306.25878906 103.95898438 306.25878906 C104.2080957 306.95842773 104.45720703 307.65806641 104.71386719 308.37890625 C106.12722396 311.64791732 107.89150685 314.38242111 109.88085938 317.33691406 C110.45456268 318.19322418 110.45456268 318.19322418 111.03985596 319.0668335 C112.25856563 320.88377488 113.48361043 322.6963373 114.70898438 324.50878906 C115.91500863 326.30282274 117.11976116 328.09769062 118.32287598 329.89367676 C119.10838414 331.059497 119.89994255 332.22126455 120.69763184 333.37878418 C122.43257326 335.90611003 124.03468655 338.40395912 125.453125 341.12402344 C126.85698549 343.97236474 126.85698549 343.97236474 129.95898438 347.25878906 C133.91898438 347.25878906 137.87898438 347.25878906 141.95898438 347.25878906 C141.95898438 327.78878906 141.95898438 308.31878906 141.95898438 288.25878906 C138.32898438 288.25878906 134.69898438 288.25878906 130.95898438 288.25878906 C130.95898438 301.78878906 130.95898438 315.31878906 130.95898438 329.25878906 C130.29898438 329.25878906 129.63898438 329.25878906 128.95898438 329.25878906 C128.75015625 328.61683594 128.54132813 327.97488281 128.32617188 327.31347656 C126.39606944 323.00107626 123.7478298 319.27415325 121.08398438 315.38378906 C116.83434535 309.1489172 112.73441231 303.00375839 109.49414062 296.16894531 C107.85895177 292.77708177 107.85895177 292.77708177 103.95898438 288.25878906 C99.66898438 288.25878906 95.37898437 288.25878906 90.95898438 288.25878906 Z M152.95898438 288.25878906 C152.95898438 291.55878906 152.95898438 294.85878906 152.95898438 298.25878906 C158.56898438 298.25878906 164.17898438 298.25878906 169.95898438 298.25878906 C169.95898438 314.42878906 169.95898438 330.59878906 169.95898438 347.25878906 C173.91898437 347.25878906 177.87898438 347.25878906 181.95898438 347.25878906 C181.95898438 331.08878906 181.95898438 314.91878906 181.95898438 298.25878906 C187.56898438 298.25878906 193.17898438 298.25878906 198.95898438 298.25878906 C198.95898438 294.95878906 198.95898438 291.65878906 198.95898438 288.25878906 C183.77898437 288.25878906 168.59898437 288.25878906 152.95898438 288.25878906 Z " fill="#2480DD" transform="translate(150.041015625,58.7412109375)"/>
<path d="M0 0 C2.17651367 0.34033203 2.17651367 0.34033203 4 1 C4 2.65 4 4.3 4 6 C3.34 6 2.68 6 2 6 C1.855625 6.61875 1.71125 7.2375 1.5625 7.875 C1 10 1 10 0 12 C-0.66 12 -1.32 12 -2 12 C-2.10183594 12.54785156 -2.20367187 13.09570312 -2.30859375 13.66015625 C-3.16609635 16.56210007 -4.51339074 18.83683138 -6.0625 21.4375 C-6.69414062 22.50097656 -7.32578125 23.56445312 -7.9765625 24.66015625 C-10.60745351 29.00265009 -13.28192737 33.31746117 -15.95703125 37.6328125 C-18.08242521 41.13585188 -20.11332203 44.68111111 -22.125 48.25 C-24.72097753 52.84710856 -27.44856756 57.29469575 -30.4296875 61.65234375 C-34.85385612 68.26658589 -38.98386835 75.1062871 -42.8671875 82.05078125 C-45.2163423 86.09294762 -47.72389981 90.04346932 -50.1953125 94.01171875 C-52.12512073 97.1176311 -52.12512073 97.1176311 -54 101 C-42.78 101 -31.56 101 -20 101 C-21.01921943 106.09609713 -21.4106618 106.90811354 -24.9375 110.25 C-26.00291016 111.27867187 -26.00291016 111.27867187 -27.08984375 112.328125 C-29 114 -29 114 -31 115 C-31.33 115.99 -31.66 116.98 -32 118 C-36.45714286 122 -36.45714286 122 -39 122 C-39.268125 122.639375 -39.53625 123.27875 -39.8125 123.9375 C-41 126 -41 126 -44 127 C-44.33 127.99 -44.66 128.98 -45 130 C-46.49609375 131.4375 -46.49609375 131.4375 -48.4375 133 C-54.82492283 138.41092833 -60.41506723 144.70688578 -65.625 151.25 C-68.22772659 154.26368342 -71.05338228 156.75315076 -74.07421875 159.3359375 C-77.26299059 162.09134684 -80.20095268 164.90500923 -82.6875 168.3125 C-83.120625 168.869375 -83.55375 169.42625 -84 170 C-84.66 170 -85.32 170 -86 170 C-86 170.66 -86 171.32 -86 172 C-87.5390625 173.515625 -87.5390625 173.515625 -89.625 175.25 C-92.34047759 177.54660073 -94.91262264 179.87150775 -97.375 182.4375 C-100 185 -100 185 -102 185 C-102.26167969 185.58910156 -102.52335937 186.17820312 -102.79296875 186.78515625 C-104.0642275 189.11785434 -105.40230531 190.60354368 -107.3125 192.4375 C-107.93382812 193.04078125 -108.55515625 193.6440625 -109.1953125 194.265625 C-109.79085937 194.83796875 -110.38640625 195.4103125 -111 196 C-111.886875 196.886875 -112.77375 197.77375 -113.6875 198.6875 C-114.450625 199.450625 -115.21375 200.21375 -116 201 C-116.66 201.763125 -117.32 202.52625 -118 203.3125 C-120 205 -120 205 -122.6875 205.3125 C-125 205 -125 205 -126 204 C-125.6873584 198.99773445 -124.35214024 195.27361891 -122.234375 190.76953125 C-120.69544337 187.31667515 -119.37442694 183.7933741 -118.0625 180.25 C-117.67964844 179.21866943 -117.67964844 179.21866943 -117.2890625 178.16650391 C-116.77505401 176.78121209 -116.26137998 175.39579613 -115.74804688 174.01025391 C-110.89531619 160.96933209 -110.89531619 160.96933209 -108.25 154.9375 C-107.25467464 152.59848541 -106.4964532 150.48226598 -106 148 C-106.66 148 -107.32 148 -108 148 C-108.33 149.32 -108.66 150.64 -109 152 C-109.99 152 -110.98 152 -112 152 C-112 152.66 -112 153.32 -112 154 C-112.66 154 -113.32 154 -114 154 C-114 154.66 -114 155.32 -114 156 C-114.66 156 -115.32 156 -116 156 C-116 156.66 -116 157.32 -116 158 C-116.66 158 -117.32 158 -118 158 C-118 158.66 -118 159.32 -118 160 C-119.66666667 161.66666667 -121.33333333 163.33333333 -123 165 C-124.29519995 167.16620544 -124.29519995 167.16620544 -125 169 C-130.48076923 169.36538462 -130.48076923 169.36538462 -132.6875 167.8125 C-135.18804285 164.3593694 -137.21488879 161.23960056 -138 157 C-138.66 157 -139.32 157 -140 157 C-141.6640625 155.1640625 -141.6640625 155.1640625 -143.625 152.625 C-144.34300781 151.70460938 -145.06101563 150.78421875 -145.80078125 149.8359375 C-146.88939453 148.43214844 -146.88939453 148.43214844 -148 147 C-149.26797935 145.4143802 -150.5387685 143.83100281 -151.8125 142.25 C-159.61402678 132.48668578 -167.3145522 122.66411876 -174.77563477 112.63720703 C-178.02162433 108.27884284 -181.34149859 103.99574381 -184.79296875 99.796875 C-186.12056453 97.82051882 -186.75032003 96.36951188 -187 94 C-183.38321419 90.38321419 -177.7451328 91.46790041 -172.84350586 91.40966797 C-170.83679386 91.37541468 -168.83122777 91.28763376 -166.82617188 91.19921875 C-157.31173131 91.07434472 -157.31173131 91.07434472 -153.51318359 93.75488281 C-149 98.78064404 -149 98.78064404 -149 102 C-148.40316406 102.09410156 -147.80632812 102.18820313 -147.19140625 102.28515625 C-144.485658 103.16778001 -143.68563128 104.21545078 -141.9375 106.4375 C-138.94351132 110.00700703 -135.7762366 113.25141565 -132.375 116.4375 C-131.47523438 117.28183594 -130.57546875 118.12617188 -129.6484375 118.99609375 C-126.95535931 121.0337768 -125.31838809 121.67055714 -122 122 C-122 121.34 -122 120.68 -122 120 C-117.69767442 115.23255814 -117.69767442 115.23255814 -114 114 C-114 113.34 -114 112.68 -114 112 C-113.34 112 -112.68 112 -112 112 C-111.740979 111.41283203 -111.48195801 110.82566406 -111.21508789 110.22070312 C-109.91032673 107.8361125 -108.52281907 106.33801146 -106.55859375 104.46875 C-105.89279297 103.82292969 -105.22699219 103.17710937 -104.54101562 102.51171875 C-103.1366303 101.16862044 -101.73037218 99.8274777 -100.32226562 98.48828125 C-99.65775391 97.84246094 -98.99324219 97.19664062 -98.30859375 96.53125 C-97.39291626 95.65823242 -97.39291626 95.65823242 -96.45874023 94.76757812 C-94.85083389 92.81925312 -94.57531958 91.41449763 -94 89 C-91.625 87.8125 -91.625 87.8125 -89 87 C-85.90203784 86.35856312 -85.90203784 86.35856312 -85.04296875 84.10546875 C-84.69878906 83.41066406 -84.35460937 82.71585937 -84 82 C-82.30078125 80.61328125 -82.30078125 80.61328125 -80.3125 79.3125 C-76.29605443 76.44153891 -73.65211801 73.20613447 -70.734375 69.2578125 C-68.14763666 65.89039187 -65.2887902 62.69871702 -62 60 C-61.34 60 -60.68 60 -60 60 C-60 59.34 -60 58.68 -60 58 C-59.34 58 -58.68 58 -58 58 C-57.62875 57.071875 -57.62875 57.071875 -57.25 56.125 C-55.79371361 53.64931313 -54.62187494 53.04874998 -52 52 C-52 51.34 -52 50.68 -52 50 C-51.34 50 -50.68 50 -50 50 C-50 49.34 -50 48.68 -50 48 C-48.57421875 46.4921875 -48.57421875 46.4921875 -46.6875 44.875 C-46.07261719 44.33617187 -45.45773437 43.79734375 -44.82421875 43.2421875 C-43 42 -43 42 -40 42 C-39.773125 41.443125 -39.54625 40.88625 -39.3125 40.3125 C-36.88126923 36.02890292 -33.10175395 32.68735604 -29 30 C-28.34 30 -27.68 30 -27 30 C-26.5978125 28.8553125 -26.5978125 28.8553125 -26.1875 27.6875 C-25.04865495 25.11011382 -24.18583329 23.73045136 -22 22 C-21.34 22 -20.68 22 -20 22 C-19.89131592 21.39784668 -19.78263184 20.79569336 -19.6706543 20.17529297 C-18.56214352 16.5797957 -15.56521282 14.53476183 -12.8125 12.125 C-11.6720229 11.10806375 -10.53269558 10.08983656 -9.39453125 9.0703125 C-8.82943848 8.57176758 -8.2643457 8.07322266 -7.68212891 7.55957031 C-5.9646381 5.96721454 -4.40769331 4.27912567 -2.82421875 2.5546875 C-1.89222656 1.71164063 -0.96023438 0.86859375 0 0 Z " fill="#F9912C" transform="translate(360,134)"/>
<path d="M0 0 C5.12403692 5.42545086 5.44978546 10.53138978 5.328125 17.69921875 C5.14471159 20.00246792 4.7677785 22.03656113 4.125 24.25 C3.465 24.25 2.805 24.25 2.125 24.25 C1.91875 24.8275 1.7125 25.405 1.5 26 C-0.43838187 29.17189761 -2.45806932 30.90990265 -5.875 32.25 C-12.87185909 33.50008151 -19.21581791 33.8557669 -25.875 31.25 C-26.865 30.92 -27.855 30.59 -28.875 30.25 C-28.875 29.59 -28.875 28.93 -28.875 28.25 C-29.865 27.92 -30.855 27.59 -31.875 27.25 C-35.501819 22.60427533 -36.5393233 17.4916506 -36.24609375 11.70703125 C-35.47393998 6.59456051 -33.98823 2.80874947 -29.74609375 -0.3203125 C-19.67727777 -6.12605483 -10.01165491 -6.09405081 0 0 Z " fill="#227EDC" transform="translate(266.875,160.75)"/>
<path d="M0 0 C3.05606081 1.66635737 4.67020783 3.29632737 6.60546875 6.19921875 C7.94498849 11.86951658 8.0939286 17.14687444 5.66796875 22.5078125 C3.34822405 26.20064138 0.47599108 27.74113165 -3.69140625 28.76171875 C-9.90131697 29.68741973 -14.66634939 28.64822404 -20.39453125 26.19921875 C-20.39453125 25.53921875 -20.39453125 24.87921875 -20.39453125 24.19921875 C-21.05453125 24.19921875 -21.71453125 24.19921875 -22.39453125 24.19921875 C-26.00143105 20.1761382 -25.84109836 15.92078115 -25.67578125 10.7890625 C-25.16697117 6.10376966 -23.3190787 4.1237662 -20.08203125 0.88671875 C-14.55678178 -2.51450266 -5.94997633 -1.98979632 0 0 Z " fill="#3084DB" transform="translate(260.39453125,108.80078125)"/>
<path d="M0 0 C0.6875 1.6875 0.6875 1.6875 1 4 C0.505 4.804375 0.01 5.60875 -0.5 6.4375 C-0.995 7.283125 -1.49 8.12875 -2 9 C-1.6596875 10.1446875 -1.6596875 10.1446875 -1.3125 11.3125 C-0.92842405 14.61555315 -1.54831947 15.28052417 -3.4375 17.9375 C-6.29686894 21.4767189 -9.45284095 24.07756664 -13.1640625 26.6796875 C-15.34399498 28.24738362 -17.18092514 30.02933557 -19 32 C-19.495 31.01 -19.495 31.01 -20 30 C-22.02463255 29.34786708 -22.02463255 29.34786708 -24 29 C-22.71937515 27.2925002 -21.38232443 25.62626404 -20 24 C-19.34 24 -18.68 24 -18 24 C-18 23.34 -18 22.68 -18 22 C-17.34 22 -16.68 22 -16 22 C-16.495 21.01 -16.495 21.01 -17 20 C-21.14093698 19.79029441 -21.14093698 19.79029441 -25 21 C-27.24974161 21.15495763 -29.50371536 21.25010928 -31.7578125 21.31640625 C-32.42086395 21.33718735 -33.08391541 21.35796844 -33.76705933 21.37937927 C-35.88626694 21.44479231 -38.005599 21.50372105 -40.125 21.5625 C-41.56121081 21.60569309 -42.99740902 21.64930764 -44.43359375 21.69335938 C-47.95559594 21.80046499 -51.47773825 21.90175575 -55 22 C-55.33 21.01 -55.66 20.02 -56 19 C-56.66 18.67 -57.32 18.34 -58 18 C-57.35675781 18.04600342 -56.71351563 18.09200684 -56.05078125 18.1394043 C-30.6222776 20.22863406 -30.6222776 20.22863406 -8 10 C-6.16863844 8.08163789 -4.61074562 6.11410363 -3 4 C-2.34 4 -1.68 4 -1 4 C-0.67 2.68 -0.34 1.36 0 0 Z " fill="#3281CF" transform="translate(290,190)"/>
<path d="M0 0 C2.12095421 3.74620647 2.02894968 5.79066042 1 10 C0.67 10.33 0.34 10.66 0 11 C-0.10137785 12.36551476 -0.13396444 13.7362126 -0.1386652 15.10547733 C-0.14413964 15.99573425 -0.14961409 16.88599117 -0.15525442 17.80322558 C-0.15623253 18.79250455 -0.15721064 19.78178352 -0.15821838 20.80104065 C-0.16315636 21.84320093 -0.16809434 22.8853612 -0.17318195 23.95910209 C-0.18864071 27.47997586 -0.19694012 31.00083129 -0.20532227 34.52172852 C-0.21489422 37.03416101 -0.22490388 39.54659187 -0.23532104 42.059021 C-0.25681861 47.48290527 -0.27524845 52.9067864 -0.29092598 58.33069038 C-0.31359854 66.17282907 -0.34174493 74.01494051 -0.37124526 81.85705613 C-0.4189533 94.57908987 -0.46220875 107.30113472 -0.50268555 120.02319336 C-0.54202415 132.38453029 -0.58344643 144.74585733 -0.62768555 157.10717773 C-0.63040982 157.86859888 -0.63313409 158.63002003 -0.63594092 159.41451455 C-0.64962013 163.23418221 -0.66334045 167.05384972 -0.67708123 170.87351716 C-0.79109645 202.58232442 -0.89782078 234.29115232 -1 266 C-1.33 266 -1.66 266 -2 266 C-2.04565234 233.55733588 -2.08103337 201.11468103 -2.10213066 168.6719921 C-2.10463199 164.83943348 -2.10722064 161.00687493 -2.10986328 157.17431641 C-2.11065021 156.02985499 -2.11065021 156.02985499 -2.11145304 154.86227314 C-2.1201491 142.51795335 -2.13591467 130.17365223 -2.15430559 117.82934351 C-2.17302689 105.15733733 -2.18412144 92.48534091 -2.18817699 79.81332147 C-2.19091742 71.99776856 -2.19956429 64.18226846 -2.21583293 56.36673181 C-2.22768207 50.36775928 -2.22890571 44.36883191 -2.22621536 38.36984634 C-2.22676489 35.913281 -2.23073388 33.45671363 -2.23841095 31.00016022 C-2.24839411 27.64046566 -2.24595646 24.28099515 -2.24050903 20.92129517 C-2.24633472 19.95434082 -2.2521604 18.98738647 -2.25816262 17.99113047 C-2.2310362 11.78081972 -1.43705597 6.04086313 0 0 Z " fill="#84AEDA" transform="translate(59,112)"/>
<path d="M0 0 C0.33 0 0.66 0 1 0 C1 3.3 1 6.6 1 10 C6.61 10 12.22 10 18 10 C18 26.17 18 42.34 18 59 C21.96 59 25.92 59 30 59 C30 42.83 30 26.66 30 10 C35.94 10 41.88 10 48 10 C48 7.03 48 4.06 48 1 C48.33 1 48.66 1 49 1 C49.02688151 2.64574566 49.04634123 4.29161413 49.0625 5.9375 C49.07410156 6.85402344 49.08570313 7.77054687 49.09765625 8.71484375 C49 11 49 11 48 12 C45.30345146 12.07319621 42.63308542 12.09242537 39.9375 12.0625 C38.79958008 12.05573242 38.79958008 12.05573242 37.63867188 12.04882812 C35.75908129 12.0370068 33.87953101 12.01907078 32 12 C32.00523682 13.24088379 32.01047363 14.48176758 32.01586914 15.76025391 C32.03401386 20.37841059 32.0454666 24.99656414 32.05493164 29.61474609 C32.05995022 31.61084524 32.06676651 33.60694073 32.07543945 35.60302734 C32.08761356 38.47754826 32.09325316 41.35202044 32.09765625 44.2265625 C32.10281754 45.11429352 32.10797882 46.00202454 32.11329651 46.91665649 C32.11337204 47.75707489 32.11344757 48.59749329 32.11352539 49.46337891 C32.115746 50.19618073 32.11796661 50.92898254 32.12025452 51.68399048 C31.97521867 54.47726944 31.45983084 57.24101498 31 60 C26.38 60 21.76 60 17 60 C17 43.83 17 27.66 17 11 C11.39 11 5.78 11 0 11 C0 7.37 0 3.74 0 0 Z " fill="#5092D5" transform="translate(302,347)"/>
<path d="M0 0 C0.66 0.33 1.32 0.66 2 1 C1.525625 1.433125 1.05125 1.86625 0.5625 2.3125 C-1.23686957 4.02309613 -1.23686957 4.02309613 -2 7 C-2.66 7 -3.32 7 -4 7 C-4.33 7.99 -4.66 8.98 -5 10 C-6.66666667 11 -8.33333333 12 -10 13 C-12.95080342 15.49516466 -15.50462633 17.70259276 -16.90234375 21.36328125 C-18.24458071 24.58751593 -20.05434752 26.7104395 -22.375 29.3125 C-23.14585937 30.19550781 -23.91671875 31.07851562 -24.7109375 31.98828125 C-27 34 -27 34 -31 34 C-31.0928125 34.8971875 -31.0928125 34.8971875 -31.1875 35.8125 C-32.34251409 38.92215331 -34.12235715 39.34688602 -37 41 C-44.23744653 46.66263177 -50.56293195 53.46637593 -57 60 C-57 57 -57 57 -55.54711914 55.25415039 C-54.88317139 54.62500732 -54.21922363 53.99586426 -53.53515625 53.34765625 C-52.81779297 52.65349609 -52.10042969 51.95933594 -51.36132812 51.24414062 C-49.83278172 49.79351502 -48.3041364 48.34299363 -46.77539062 46.89257812 C-46.05673828 46.19712891 -45.33808594 45.50167969 -44.59765625 44.78515625 C-43.60004272 43.83974976 -43.60004272 43.83974976 -42.58227539 42.87524414 C-40.87810292 40.85553287 -40.58121305 39.52149316 -40 37 C-37.625 35.8125 -37.625 35.8125 -35 35 C-31.90203784 34.35856312 -31.90203784 34.35856312 -31.04296875 32.10546875 C-30.69878906 31.41066406 -30.35460937 30.71585938 -30 30 C-28.30078125 28.61328125 -28.30078125 28.61328125 -26.3125 27.3125 C-22.29605443 24.44153891 -19.65211801 21.20613447 -16.734375 17.2578125 C-14.14763666 13.89039187 -11.2887902 10.69871702 -8 8 C-7.34 8 -6.68 8 -6 8 C-6 7.34 -6 6.68 -6 6 C-5.34 6 -4.68 6 -4 6 C-3.566875 5.071875 -3.566875 5.071875 -3.125 4.125 C-2 2 -2 2 0 0 Z " fill="#AF8C66" transform="translate(306,186)"/>
<path d="M0 0 C1.231394 2.46278801 1.07159196 4.2795055 1 7 C3.24425432 7.50549294 3.24425432 7.50549294 6 7 C8.23913252 5.20659643 10.12454539 3.16547337 12 1 C12.66 1.33 13.32 1.66 14 2 C12.95600254 3.34786992 11.88897934 4.67792729 10.8125 6 C10.22082031 6.7425 9.62914062 7.485 9.01953125 8.25 C7 10 7 10 4.26171875 10.25 C3.14216797 10.12625 3.14216797 10.12625 2 10 C2 10.99 2 11.98 2 13 C-2.22222222 16 -2.22222222 16 -5 16 C-5 35.47 -5 54.94 -5 75 C-5.33 75 -5.66 75 -6 75 C-6 55.53 -6 36.06 -6 16 C-9.96 16 -13.92 16 -18 16 C-18 15.67 -18 15.34 -18 15 C-14.37 15 -10.74 15 -7 15 C-6.8453125 13.576875 -6.8453125 13.576875 -6.6875 12.125 C-6 9 -6 9 -3 7 C-2.27306096 5.02111039 -1.60183749 3.02045442 -1 1 C-0.67 0.67 -0.34 0.34 0 0 Z " fill="#3578BF" transform="translate(234,331)"/>
<path d="M0 0 C2.3125 0.1875 2.3125 0.1875 4 1 C4 2.65 4 4.3 4 6 C3.34 6 2.68 6 2 6 C1.855625 6.61875 1.71125 7.2375 1.5625 7.875 C1 10 1 10 0 12 C-0.66 12 -1.32 12 -2 12 C-2.11214844 12.56203125 -2.22429687 13.1240625 -2.33984375 13.703125 C-3.09057339 16.31513108 -4.21167376 18.39471322 -5.5625 20.75 C-6.01753906 21.54921875 -6.47257812 22.3484375 -6.94140625 23.171875 C-7.29074219 23.77515625 -7.64007813 24.3784375 -8 25 C-9 22 -9 22 -8 19 C-8.66 19 -9.32 19 -10 19 C-10 18.01 -10 17.02 -10 16 C-8.68 15.67 -7.36 15.34 -6 15 C-6 13.35 -6 11.7 -6 10 C-8.16343011 12.03268602 -8.16343011 12.03268602 -10 15 C-10.99 15 -11.98 15 -13 15 C-13 15.66 -13 16.32 -13 17 C-15.375 18.6875 -15.375 18.6875 -18 20 C-18.66 19.67 -19.32 19.34 -20 19 C-19.57178955 18.60208252 -19.1435791 18.20416504 -18.70239258 17.79418945 C-16.73819579 15.96792411 -14.77533995 14.14022353 -12.8125 12.3125 C-12.13896484 11.68666016 -11.46542969 11.06082031 -10.77148438 10.41601562 C-10.11083984 9.80048828 -9.45019531 9.18496094 -8.76953125 8.55078125 C-8.12282471 7.94854736 -7.47611816 7.34631348 -6.80981445 6.72583008 C-5.20978883 5.20005359 -3.67920718 3.6330148 -2.15625 2.03125 C-1.4446875 1.3609375 -0.733125 0.690625 0 0 Z " fill="#DE9549" transform="translate(360,134)"/>
<path d="M0 0 C0.33 0 0.66 0 1 0 C1 1.98 1 3.96 1 6 C0.01 6.33 -0.98 6.66 -2 7 C-3.21869929 9.50447516 -3.21869929 9.50447516 -4 12 C-4.66 12 -5.32 12 -6 12 C-6 13.32 -6 14.64 -6 16 C-6.99 16.66 -7.98 17.32 -9 18 C-9.36362818 20.20725073 -9.36362818 20.20725073 -9.1875 22.625 C-9.16042969 23.44226563 -9.13335937 24.25953125 -9.10546875 25.1015625 C-9.07066406 25.72804687 -9.03585937 26.35453125 -9 27 C-9.99 27.33 -10.98 27.66 -12 28 C-2.76 28 6.48 28 16 28 C16.495 28.99 16.495 28.99 17 30 C5.78 30 -5.44 30 -17 30 C-15.43451005 25.30353016 -14.25815051 22.52372424 -11.625 18.5625 C-9.60454916 15.4753515 -7.60996162 12.41004075 -5.8125 9.1875 C-3.99956215 5.99922999 -2.11689594 2.99285288 0 0 Z " fill="#347CC7" transform="translate(323,205)"/>
<path d="M0 0 C0.33 0.66 0.66 1.32 1 2 C1.66 2 2.32 2 3 2 C3.0248244 6.5898398 3.04291873 11.17964001 3.05493164 15.76953125 C3.05994272 17.32910849 3.06675337 18.88868108 3.07543945 20.44824219 C3.08764686 22.69727736 3.09326068 24.9462501 3.09765625 27.1953125 C3.10281754 27.8861795 3.10797882 28.57704651 3.11329651 29.28884888 C3.11375529 33.29915055 2.7735266 37.06545295 2 41 C1.34 41 0.68 41 0 41 C-1.46582355 38.85718967 -2.81123514 36.73293604 -4.125 34.5 C-4.49753906 33.87996094 -4.87007813 33.25992188 -5.25390625 32.62109375 C-6.17578953 31.08462162 -7.08873475 29.54279325 -8 28 C-7.34 27.67 -6.68 27.34 -6 27 C-6 27.66 -6 28.32 -6 29 C-4.68 28.67 -3.36 28.34 -2 28 C-1.67 28.99 -1.34 29.98 -1 31 C-1.33 31.66 -1.66 32.32 -2 33 C-1.34 33 -0.68 33 0 33 C0 22.11 0 11.22 0 0 Z " fill="#5FA3D4" transform="translate(279,347)"/>
<path d="M0 0 C3.92113569 0.58090899 6.18463148 2.25682041 9 5 C12.70892092 11.26679741 13.05166654 18.24359905 11.484375 25.33203125 C11.24460937 26.15767578 11.24460937 26.15767578 11 27 C10.34 27 9.68 27 9 27 C8.690625 27.86625 8.690625 27.86625 8.375 28.75 C6.43797872 31.91967119 4.41900708 33.66791932 1 35 C-5.48969818 36.07199589 -11.53616266 36.27524502 -18 35 C-18 34.67 -18 34.34 -18 34 C-13.900639 33.0672582 -9.87956712 32.71174738 -5.6875 32.4375 C-4.43324219 32.35371094 -3.17898438 32.26992187 -1.88671875 32.18359375 C-0.93410156 32.12300781 0.01851563 32.06242187 1 32 C1 31.34 1 30.68 1 30 C2.32 30 3.64 30 5 30 C5 29.01 5 28.02 5 27 C5.99 27 6.98 27 8 27 C9.37004923 20.14975385 9.37004923 13.85024615 8 7 C7.38125 6.938125 6.7625 6.87625 6.125 6.8125 C4 6 4 6 2.875 3.5 C2.58625 2.675 2.2975 1.85 2 1 C1.34 0.67 0.68 0.34 0 0 Z " fill="#5894D5" transform="translate(260,158)"/>
<path d="M0 0 C4.29 0.66 8.58 1.32 13 2 C13 2.33 13 2.66 13 3 C8.71 3 4.42 3 0 3 C0 22.47 0 41.94 0 62 C-0.66 62 -1.32 62 -2 62 C-2.04632731 54.35919871 -2.08187121 46.71841197 -2.10362434 39.07750225 C-2.11406444 35.52956369 -2.12822763 31.98172117 -2.15087891 28.43383789 C-2.17675331 24.35562209 -2.1864709 20.27750729 -2.1953125 16.19921875 C-2.20563507 14.92414963 -2.21595764 13.64908051 -2.22659302 12.33537292 C-2.22674408 11.15437515 -2.22689514 9.97337738 -2.22705078 8.7565918 C-2.231492 7.71512497 -2.23593323 6.67365814 -2.24050903 5.60063171 C-2 3 -2 3 0 0 Z " fill="#3376C1" transform="translate(241,344)"/>
<path d="M0 0 C0.66 0 1.32 0 2 0 C1.50991545 4.65580321 0.0967623 8.51242408 -1.6796875 12.7890625 C-3.42961485 17.04480297 -5.08793218 21.33433124 -6.75 25.625 C-7.36976183 27.22136575 -7.98955125 28.81772079 -8.609375 30.4140625 C-9.29773438 32.18910156 -9.29773438 32.18910156 -10 34 C-10.33 34 -10.66 34 -11 34 C-11 32.02 -11 30.04 -11 28 C-10.34 28 -9.68 28 -9 28 C-9 26.02 -9 24.04 -9 22 C-8.34 22 -7.68 22 -7 22 C-7 20.35 -7 18.7 -7 17 C-6.34 17 -5.68 17 -5 17 C-5 16.01 -5 15.02 -5 14 C-7.97 14.66 -10.94 15.32 -14 16 C-14 16.66 -14 17.32 -14 18 C-14.66 17.67 -15.32 17.34 -16 17 C-14.71937515 15.2925002 -13.38232443 13.62626404 -12 12 C-11.34 12 -10.68 12 -10 12 C-10 11.34 -10 10.68 -10 10 C-9.34 10 -8.68 10 -8 10 C-8 9.34 -8 8.68 -8 8 C-7.34 8 -6.68 8 -6 8 C-6 7.34 -6 6.68 -6 6 C-5.34 6 -4.68 6 -4 6 C-4 5.34 -4 4.68 -4 4 C-3.01 4 -2.02 4 -1 4 C-0.67 2.68 -0.34 1.36 0 0 Z " fill="#437CBA" transform="translate(252,282)"/>
<path d="M0 0 C0.33 0 0.66 0 1 0 C1.4375 2.0625 1.4375 2.0625 1 5 C-0.6847977 6.89647741 -2.51001544 8.56681362 -4.375 10.28515625 C-6.38446437 12.40572082 -6.91188113 14.0920773 -7 17 C-6.34 17.33 -5.68 17.66 -5 18 C-8.75 21 -8.75 21 -11 21 C-11 20.01 -11 19.02 -11 18 C-11.78375 18.66 -12.5675 19.32 -13.375 20 C-16 22 -16 22 -18 22 C-18.66 23.98 -19.32 25.96 -20 28 C-20.66 28 -21.32 28 -22 28 C-22.25265625 28.60972656 -22.5053125 29.21945312 -22.765625 29.84765625 C-24.17976045 32.31344307 -25.29554893 33.06281713 -27.75 34.4375 C-31.52236832 36.65411058 -34.70970742 39.12099399 -38 42 C-34.87307061 34.68728683 -27.56550307 29.33626297 -21.5625 24.34765625 C-20.05001192 23.04313528 -18.64638052 21.61561644 -17.25 20.1875 C-15 18 -15 18 -12 17 C-11.85433594 16.39414063 -11.70867187 15.78828125 -11.55859375 15.1640625 C-10.80375594 12.2397258 -9.37271075 11.27162872 -7.0625 9.375 C-5.99708984 8.48941406 -5.99708984 8.48941406 -4.91015625 7.5859375 C-4.27980469 7.06257812 -3.64945312 6.53921875 -3 6 C-0.8614515 3.8614515 -0.57344937 2.86724686 0 0 Z M-13 21 C-12.34 21 -11.68 21 -11 21 C-11 22.32 -11 23.64 -11 25 C-11.99 24.67 -12.98 24.34 -14 24 C-13.67 23.01 -13.34 22.02 -13 21 Z " fill="#537EA9" transform="translate(340,235)"/>
<path d="M0 0 C0.33 0 0.66 0 1 0 C1 2.64 1 5.28 1 8 C0.01 8.33 -0.98 8.66 -2 9 C-2.165 10.258125 -2.33 11.51625 -2.5 12.8125 C-2.5928125 13.52019531 -2.685625 14.22789062 -2.78125 14.95703125 C-3.18039484 18.68475893 -2.86945463 20.78038369 -1 24 C-0.34 24.66 0.32 25.32 1 26 C-3.29032258 30.90322581 -3.29032258 30.90322581 -6.75 31.375 C-9 31 -9 31 -10 30 C-9.68541515 24.96664241 -8.32689927 21.21799257 -6.1875 16.6875 C-3.78995341 11.26147351 -1.94406143 5.60112781 0 0 Z " fill="#F19438" transform="translate(244,308)"/>
<path d="M0 0 C0 0.66 0 1.32 0 2 C-6.93 1.505 -6.93 1.505 -14 1 C-14 1.66 -14 2.32 -14 3 C-14.94875 3.20625 -15.8975 3.4125 -16.875 3.625 C-20.29166667 4.70833333 -20.29166667 4.70833333 -21.375 8.125 C-21.58125 9.07375 -21.7875 10.0225 -22 11 C-21.67 11.33 -21.34 11.66 -21 12 C-20.95936168 13.66617115 -20.957279 15.33388095 -21 17 C-21.78375 17.2475 -22.5675 17.495 -23.375 17.75 C-26.3916501 19.18650005 -26.71565565 20.04720831 -28 23 C-28.49483827 16.29219229 -28.4935049 10.36360001 -24 5 C-16.86500855 -0.26287443 -8.73809888 -2.79619164 0 0 Z " fill="#4C96E2" transform="translate(259,157)"/>
<path d="M0 0 C0.66 0 1.32 0 2 0 C2.66 1.65 3.32 3.3 4 5 C3.34 5 2.68 5 2 5 C2.05329468 6.62796509 2.05329468 6.62796509 2.10766602 8.28881836 C2.23766643 12.30103594 2.36095557 16.31343613 2.48217773 20.32592773 C2.53567262 22.06524323 2.59100755 23.80450312 2.64819336 25.54370117 C2.72989627 28.03812666 2.80506164 30.53267483 2.87890625 33.02734375 C2.91945885 34.2007859 2.91945885 34.2007859 2.96083069 35.39793396 C3.01288386 37.26460933 3.01187025 39.13263674 3 41 C2 42 2 42 -0.94140625 42.09765625 C-2.13636719 42.08605469 -3.33132812 42.07445312 -4.5625 42.0625 C-6.35880859 42.04896484 -6.35880859 42.04896484 -8.19140625 42.03515625 C-9.11824219 42.02355469 -10.04507813 42.01195312 -11 42 C-11 41.67 -11 41.34 -11 41 C-7.37 41 -3.74 41 0 41 C0 27.47 0 13.94 0 0 Z " fill="#77ACE3" transform="translate(252,365)"/>
<path d="M0 0 C0.33 0.66 0.66 1.32 1 2 C0.67 2.66 0.34 3.32 0 4 C0.66 4 1.32 4 2 4 C2 4.99 2 5.98 2 7 C-0.31 7.33 -2.62 7.66 -5 8 C-4.01 8.33 -3.02 8.66 -2 9 C-3.27417443 12.8225233 -4.61060444 13.86320715 -8 16 C-11.8125 16.25 -11.8125 16.25 -15 16 C-12.63576836 11.46233436 -9.58926031 8.51941221 -5.8125 5.1875 C-5.25369141 4.68541016 -4.69488281 4.18332031 -4.11914062 3.66601562 C-2.75116046 2.43834111 -1.37627084 1.2183731 0 0 Z " fill="#297DD4" transform="translate(310,269)"/>
<path d="M0 0 C0.87914062 0.00902344 1.75828125 0.01804687 2.6640625 0.02734375 C4.8178271 0.05075423 6.97145014 0.0866199 9.125 0.125 C9.125 0.455 9.125 0.785 9.125 1.125 C7.67480469 1.28935547 7.67480469 1.28935547 6.1953125 1.45703125 C-6.72844585 3.03091469 -17.41797338 4.69941939 -26.375 15 C-26.87 15.70125 -27.365 16.4025 -27.875 17.125 C-28.205 15.805 -28.535 14.485 -28.875 13.125 C-28.215 13.125 -27.555 13.125 -26.875 13.125 C-26.545 11.475 -26.215 9.825 -25.875 8.125 C-25.215 8.455 -24.555 8.785 -23.875 9.125 C-23.215 8.135 -22.555 7.145 -21.875 6.125 C-20.885 5.795 -19.895 5.465 -18.875 5.125 C-17.66617904 3.12483534 -17.66617904 3.12483534 -16.875 1.125 C-16.545 1.455 -16.215 1.785 -15.875 2.125 C-14.69550781 1.63386719 -14.69550781 1.63386719 -13.4921875 1.1328125 C-8.89978578 -0.14671195 -4.73707961 -0.09274403 0 0 Z " fill="#498ACE" transform="translate(245.875,88.875)"/>
<path d="M0 0 C0.33 0 0.66 0 1 0 C1 12.87 1 25.74 1 39 C0.01 39 -0.98 39 -2 39 C-1.88206288 33.60636763 -1.75783819 28.21293153 -1.62768555 22.81958008 C-1.5842718 20.98335753 -1.54260161 19.14709292 -1.50268555 17.31079102 C-1.44513831 14.67711689 -1.38140002 12.04365579 -1.31640625 9.41015625 C-1.29969376 8.58411392 -1.28298126 7.75807159 -1.26576233 6.90699768 C-1.11387171 1.11387171 -1.11387171 1.11387171 0 0 Z " fill="#2D7ED4" transform="translate(318,368)"/>
<path d="M0 0 C0 0.66 0 1.32 0 2 C-4.87143359 3.55732874 -9.09060428 4.28130311 -14.24609375 4.4140625 C-14.90207047 4.43342865 -15.55804718 4.4527948 -16.23390198 4.4727478 C-18.30164128 4.53188909 -20.36943829 4.57866229 -22.4375 4.625 C-23.85093394 4.66324033 -25.26434609 4.70229545 -26.67773438 4.7421875 C-30.11828852 4.83753452 -33.55900839 4.92180287 -37 5 C-37.33 4.01 -37.66 3.02 -38 2 C-38.66 1.67 -39.32 1.34 -40 1 C-39.33581055 1.0407666 -38.67162109 1.0815332 -37.98730469 1.12353516 C-21.9976823 2.31404403 -21.9976823 2.31404403 -6.171875 0.47265625 C-4 0 -4 0 0 0 Z " fill="#5392D0" transform="translate(272,207)"/>
<path d="M0 0 C15.84 0.495 15.84 0.495 32 1 C32 1.33 32 1.66 32 2 C18.635 2.495 18.635 2.495 5 3 C4.67 4.32 4.34 5.64 4 7 C5.17865648 8.99996325 5.17865648 8.99996325 6.9375 10.75 C7.50339844 11.36359375 8.06929687 11.9771875 8.65234375 12.609375 C9.31943359 13.29773438 9.31943359 13.29773438 10 14 C9.67 14.66 9.34 15.32 9 16 C6.525 15.01 6.525 15.01 4 14 C4 13.34 4 12.68 4 12 C3.34 12 2.68 12 2 12 C2.33 10.68 2.66 9.36 3 8 C2.34 8 1.68 8 1 8 C0.67 5.36 0.34 2.72 0 0 Z " fill="#4F7BAB" transform="translate(170,224)"/>
<path d="M0 0 C1.20272819 2.40545638 1.10071472 3.94996953 1.0625 6.625 C1.05347656 7.44226563 1.04445313 8.25953125 1.03515625 9.1015625 C1.02355469 9.72804687 1.01195312 10.35453125 1 11 C0.34 11 -0.32 11 -1 11 C-1.66 12.98 -2.32 14.96 -3 17 C-3.66 17 -4.32 17 -5 17 C-5 16.34 -5 15.68 -5 15 C-5.99 15 -6.98 15 -8 15 C-8.33 16.65 -8.66 18.3 -9 20 C-9.66 20 -10.32 20 -11 20 C-9.56952311 14.89115395 -7.28610306 10.98255739 -4.375 6.625 C-3.95476562 5.98433594 -3.53453125 5.34367188 -3.1015625 4.68359375 C-2.07370232 3.11844302 -1.03768114 1.55865686 0 0 Z " fill="#367DC6" transform="translate(351,159)"/>
<path d="M0 0 C0.99 0.33 1.98 0.66 3 1 C3 1.99 3 2.98 3 4 C3.99 4.33 4.98 4.66 6 5 C6.33 6.98 6.66 8.96 7 11 C7.99 11.33 8.98 11.66 10 12 C9.34 12 8.68 12 8 12 C8.14109986 14.10448938 8.28804175 16.2085877 8.4375 18.3125 C8.51871094 19.48425781 8.59992188 20.65601563 8.68359375 21.86328125 C8.8867371 25.02590958 8.8867371 25.02590958 10 28 C9.360625 28.268125 8.72125 28.53625 8.0625 28.8125 C5.66868314 29.88667752 5.66868314 29.88667752 5 33 C4.34 32.67 3.68 32.34 3 32 C3.32355469 31.33871094 3.64710938 30.67742187 3.98046875 29.99609375 C5.23307708 26.315057 5.33033321 22.90377427 5.3125 19.0625 C5.32861328 18.37220703 5.34472656 17.68191406 5.36132812 16.97070312 C5.36586191 12.18755721 4.2856105 9.14304594 2 5 C2 4.01 2 3.02 2 2 C1.34 2 0.68 2 0 2 C0 1.34 0 0.68 0 0 Z " fill="#5897D6" transform="translate(283,103)"/>
<path d="M0 0 C0.66 0 1.32 0 2 0 C1.79375 0.61875 1.5875 1.2375 1.375 1.875 C1.25125 2.57625 1.1275 3.2775 1 4 C1.66 4.66 2.32 5.32 3 6 C2.50628906 6.48210937 2.01257813 6.96421875 1.50390625 7.4609375 C0.86324219 8.09257812 0.22257813 8.72421875 -0.4375 9.375 C-1.07558594 10.00148437 -1.71367187 10.62796875 -2.37109375 11.2734375 C-4.07882176 12.91723061 -4.07882176 12.91723061 -5 15 C-5.66 15 -6.32 15 -7 15 C-7.33 15.66 -7.66 16.32 -8 17 C-8.33 15.68 -8.66 14.36 -9 13 C-8.34 12.67 -7.68 12.34 -7 12 C-7.33 11.01 -7.66 10.02 -8 9 C-6.71520959 7.49410612 -5.42195918 5.99542625 -4.125 4.5 C-3.04605469 3.24703125 -3.04605469 3.24703125 -1.9453125 1.96875 C-1.30335938 1.3190625 -0.66140625 0.669375 0 0 Z " fill="#297DD4" transform="translate(253,231)"/>
<path d="M0 0 C3.05566461 2.96306871 5.97135828 6.01720161 8.8125 9.1875 C9.41707031 9.86167969 10.02164063 10.53585937 10.64453125 11.23046875 C12 13 12 13 12 15 C12.66 15 13.32 15 14 15 C16.04169485 17.90548882 17 19.40142046 17 23 C14.6875 22.875 14.6875 22.875 12 22 C10.375 19.3125 10.375 19.3125 9 16 C7.38270367 11.69357776 7.38270367 11.69357776 3.9375 9.125 C2 8 2 8 1.30078125 6.109375 C0.80245178 4.0877831 0.39564578 2.04416988 0 0 Z " fill="#417DBF" transform="translate(208,276)"/>
<path d="M0 0 C0.99 0 1.98 0 3 0 C3 0.99 3 1.98 3 3 C3.66 3 4.32 3 5 3 C5 3.66 5 4.32 5 5 C5.66 5 6.32 5 7 5 C7 5.66 7 6.32 7 7 C7.66 7 8.32 7 9 7 C9 7.66 9 8.32 9 9 C9.66 9 10.32 9 11 9 C11.33 9.99 11.66 10.98 12 12 C12.845625 12.45375 13.69125 12.9075 14.5625 13.375 C15.366875 13.91125 16.17125 14.4475 17 15 C17.3125 17.6875 17.3125 17.6875 17 20 C17.66 20 18.32 20 19 20 C19.33 21.65 19.66 23.3 20 25 C15.74310824 20.91881485 12.02025124 16.5186513 8.3125 11.9375 C7.44141602 10.87692383 7.44141602 10.87692383 6.55273438 9.79492188 C5.99521484 9.10849609 5.43769531 8.42207031 4.86328125 7.71484375 C4.36094971 7.09730225 3.85861816 6.47976074 3.34106445 5.84350586 C1.97935966 3.97162658 0.97352129 2.09612479 0 0 Z " fill="#ED943A" transform="translate(190,252)"/>
<path d="M0 0 C1.98 0.66 3.96 1.32 6 2 C5.236875 2.721875 4.47375 3.44375 3.6875 4.1875 C0.98564475 6.798255 0.98564475 6.798255 -0.5 9.5625 C-2.26170817 12.42527578 -4.38495519 13.92137464 -7 16 C-7.33 16.70125 -7.66 17.4025 -8 18.125 C-9.41677764 20.78145807 -11.21507688 21.12055059 -14 22 C-13.401875 21.29875 -12.80375 20.5975 -12.1875 19.875 C-10.02259039 17.02969023 -8.50403364 14.23367233 -7 11 C-5.68 11 -4.36 11 -3 11 C-3.061875 9.741875 -3.12375 8.48375 -3.1875 7.1875 C-3.20826011 3.27768014 -3.20826011 3.27768014 -1.5 1 C-1.005 0.67 -0.51 0.34 0 0 Z " fill="#2C7CD0" transform="translate(342,144)"/>
<path d="M0 0 C4.91986741 4.91986741 4.1428238 14.35865773 4.1875 20.875 C4.16562206 25.06681307 3.97019973 28.91739952 3 33 C2.67 33 2.34 33 2 33 C1.98018066 32.44127197 1.96036133 31.88254395 1.93994141 31.30688477 C1.8434781 28.72502582 1.73430188 26.14384608 1.625 23.5625 C1.5940625 22.68400391 1.563125 21.80550781 1.53125 20.90039062 C1.30218204 15.72727247 0.69827643 10.98547594 -0.68212891 5.98803711 C-1.04628197 3.71054217 -0.69500482 2.17989877 0 0 Z " fill="#6396CD" transform="translate(439,111)"/>
<path d="M0 0 C0.33 0 0.66 0 1 0 C1.33 5.94 1.66 11.88 2 18 C1.34 18 0.68 18 0 18 C-1.46582355 15.85718967 -2.81123514 13.73293604 -4.125 11.5 C-4.49753906 10.87996094 -4.87007813 10.25992187 -5.25390625 9.62109375 C-6.17578953 8.08462162 -7.08873475 6.54279325 -8 5 C-7.34 4.67 -6.68 4.34 -6 4 C-6 4.66 -6 5.32 -6 6 C-4.68 5.67 -3.36 5.34 -2 5 C-1.67 5.99 -1.34 6.98 -1 8 C-1.33 8.66 -1.66 9.32 -2 10 C-1.34 10 -0.68 10 0 10 C0 6.7 0 3.4 0 0 Z " fill="#4E8CCE" transform="translate(279,370)"/>
<path d="M0 0 C0.99 0.33 1.98 0.66 3 1 C3 2.32 3 3.64 3 5 C4.65 4.34 6.3 3.68 8 3 C8 3.66 8 4.32 8 5 C8.99 4.67 9.98 4.34 11 4 C9.94124926 7.40312738 8.99097846 10.01353231 7 13 C6.34 13 5.68 13 5 13 C4.16209211 11.21046815 3.32980604 9.41830305 2.5 7.625 C1.80390625 6.12839844 1.80390625 6.12839844 1.09375 4.6015625 C0 2 0 2 0 0 Z " fill="#67A2DE" transform="translate(198,166)"/>
<path d="M0 0 C0.66 0.99 1.32 1.98 2 3 C1.01 3 0.02 3 -1 3 C-1 3.66 -1 4.32 -1 5 C-0.34 5 0.32 5 1 5 C1.6875 6.8125 1.6875 6.8125 2 9 C0.5625 10.75 0.5625 10.75 -1 12 C-0.34 12 0.32 12 1 12 C0.67 12.66 0.34 13.32 0 14 C-2.5 12.625 -2.5 12.625 -5 11 C-5 10.34 -5 9.68 -5 9 C-5.66 9 -6.32 9 -7 9 C-7 8.01 -7 7.02 -7 6 C-5.35 5.34 -3.7 4.68 -2 4 C-2 3.34 -2 2.68 -2 2 C-1.34 2 -0.68 2 0 2 C0 1.34 0 0.68 0 0 Z " fill="#589ADB" transform="translate(283,139)"/>
<path d="M0 0 C1.32 0.33 2.64 0.66 4 1 C4 2.65 4 4.3 4 6 C2.35 6.66 0.7 7.32 -1 8 C-1 8.66 -1 9.32 -1 10 C-2.32 10.33 -3.64 10.66 -5 11 C-4.46884894 6.48521602 -2.63379708 3.65333143 0 0 Z " fill="#E39342" transform="translate(360,134)"/>
<path d="M0 0 C0.33 0 0.66 0 1 0 C1 2.64 1 5.28 1 8 C0.01 8.33 -0.98 8.66 -2 9 C-2.185625 10.8253125 -2.185625 10.8253125 -2.375 12.6875 C-2.78891306 16.06479059 -3.54573451 18.89756695 -5 22 C-5.66 22 -6.32 22 -7 22 C-7.12375 22.763125 -7.2475 23.52625 -7.375 24.3125 C-8 27 -8 27 -10 30 C-9.57232592 24.97482958 -8.33271406 21.23030624 -6.1875 16.6875 C-3.78995341 11.26147351 -1.94406143 5.60112781 0 0 Z " fill="#C7945D" transform="translate(244,308)"/>
<path d="M0 0 C0.66 0 1.32 0 2 0 C2 0.66 2 1.32 2 2 C2.66 2 3.32 2 4 2 C4 2.66 4 3.32 4 4 C4.66 4 5.32 4 6 4 C7.65625 5.79296875 7.65625 5.79296875 9.5 8.1875 C10.1084375 8.96480469 10.716875 9.74210937 11.34375 10.54296875 C12.9781336 12.9675614 14.0240629 15.25273705 15 18 C14.34 18.33 13.68 18.66 13 19 C12.34 17.35 11.68 15.7 11 14 C10.01 14.33 9.02 14.66 8 15 C7 10.25 7 10.25 7 8 C5.68 7.34 4.36 6.68 3 6 C3 5.34 3 4.68 3 4 C2.34 4 1.68 4 1 4 C0.67 2.68 0.34 1.36 0 0 Z " fill="#5091D4" transform="translate(418,78)"/>
<path d="M0 0 C0.6875 1.6875 0.6875 1.6875 1 4 C0.505 4.804375 0.01 5.60875 -0.5 6.4375 C-2.29290969 8.9151804 -2.29290969 8.9151804 -1.6875 11.8125 C-1.460625 12.534375 -1.23375 13.25625 -1 14 C-2.32 14 -3.64 14 -5 14 C-5 13.34 -5 12.68 -5 12 C-7.31 12.66 -9.62 13.32 -12 14 C-11.2575 13.278125 -10.515 12.55625 -9.75 11.8125 C-6.98732731 9.09288953 -6.98732731 9.09288953 -4.8125 6.1875 C-4.214375 5.465625 -3.61625 4.74375 -3 4 C-2.34 4 -1.68 4 -1 4 C-0.67 2.68 -0.34 1.36 0 0 Z " fill="#5196DC" transform="translate(290,190)"/>
<path d="M0 0 C0.33 0 0.66 0 1 0 C1 1.98 1 3.96 1 6 C0.01 6.33 -0.98 6.66 -2 7 C-3.21869929 9.50447516 -3.21869929 9.50447516 -4 12 C-4.66 12 -5.32 12 -6 12 C-6 13.32 -6 14.64 -6 16 C-6.99 16.66 -7.98 17.32 -9 18 C-9.33 18.99 -9.66 19.98 -10 21 C-10.66 21 -11.32 21 -12 21 C-9.17762564 13.4602285 -4.65298562 6.54864642 0 0 Z " fill="#537CAA" transform="translate(323,205)"/>
<path d="M0 0 C2.93200474 2.85276137 5.64315404 5.65079784 8 9 C7.67 9.66 7.34 10.32 7 11 C6.34 10.67 5.68 10.34 5 10 C4.67 10.99 4.34 11.98 4 13 C3.34 13 2.68 13 2 13 C2 11.68 2 10.36 2 9 C1.34 9 0.68 9 0 9 C0 6.03 0 3.06 0 0 Z " fill="#377BC6" transform="translate(198,263)"/>
<path d="M0 0 C1.26706235 3.80118706 0.57172296 5.3850372 -1 9 C-1.99 9.33 -2.98 9.66 -4 10 C-4.12375 10.969375 -4.2475 11.93875 -4.375 12.9375 C-4.58125 13.948125 -4.7875 14.95875 -5 16 C-5.66 16.33 -6.32 16.66 -7 17 C-8.13350534 19.01669827 -8.13350534 19.01669827 -9 21 C-10 18 -10 18 -9.1796875 15.80078125 C-8.74914063 14.97964844 -8.31859375 14.15851563 -7.875 13.3125 C-7.41480469 12.43464844 -6.95460938 11.55679688 -6.48046875 10.65234375 C-4.45009395 7.01481212 -2.28572411 3.48208183 0 0 Z " fill="#629DD8" transform="translate(72,86)"/>
<path d="M0 0 C-1.32 0.33 -2.64 0.66 -4 1 C-4 1.66 -4 2.32 -4 3 C-5.11375 2.95875 -6.2275 2.9175 -7.375 2.875 C-11.04366025 2.58878141 -11.04366025 2.58878141 -13 5 C-15.19291082 5.45662153 -17.40585889 5.820412 -19.625 6.125 C-21.40777344 6.37636719 -21.40777344 6.37636719 -23.2265625 6.6328125 C-24.14179687 6.75398438 -25.05703125 6.87515625 -26 7 C-25 5 -25 5 -22.55859375 3.96484375 C-14.92836714 1.45326728 -8.09077194 -0.25283662 0 0 Z " fill="#689FDB" transform="translate(125,60)"/>
<path d="M0 0 C0.66 0.33 1.32 0.66 2 1 C-5.25 10.32142857 -5.25 10.32142857 -10 11 C-10 9.02 -10 7.04 -10 5 C-9.34 4.67 -8.68 4.34 -8 4 C-7.01 4.33 -6.02 4.66 -5 5 C-5 4.01 -5 3.02 -5 2 C-2.625 0.9375 -2.625 0.9375 0 0 Z " fill="#527FAC" transform="translate(326,166)"/>
<path d="M0 0 C0 0.99 0 1.98 0 3 C-0.99 3.33 -1.98 3.66 -3 4 C-3 5.32 -3 6.64 -3 8 C-3.763125 8.2475 -4.52625 8.495 -5.3125 8.75 C-8.11785469 9.75526546 -8.11785469 9.75526546 -9.3125 12.125 C-11 14 -11 14 -12.9609375 14.2578125 C-14.97577947 14.25074288 -16.98946357 14.13183845 -19 14 C-18.67 13.34 -18.34 12.68 -18 12 C-16.35 12.33 -14.7 12.66 -13 13 C-13 12.34 -13 11.68 -13 11 C-8.69767442 6.23255814 -8.69767442 6.23255814 -5 5 C-5 4.34 -5 3.68 -5 3 C-2.5 1.375 -2.5 1.375 0 0 Z " fill="#BA9265" transform="translate(251,243)"/>
<path d="M0 0 C0.66 0.33 1.32 0.66 2 1 C1.525625 1.433125 1.05125 1.86625 0.5625 2.3125 C-1.23686957 4.02309613 -1.23686957 4.02309613 -2 7 C-2.66 7 -3.32 7 -4 7 C-4.33 7.99 -4.66 8.98 -5 10 C-6.051875 10.61875 -6.051875 10.61875 -7.125 11.25 C-11.00626274 13.61250776 -13.884161 16.72253246 -17 20 C-17 17 -17 17 -15.1015625 14.73828125 C-13.87566406 13.53751953 -13.87566406 13.53751953 -12.625 12.3125 C-11.81289063 11.50425781 -11.00078125 10.69601563 -10.1640625 9.86328125 C-8 8 -8 8 -6 8 C-6 7.34 -6 6.68 -6 6 C-5.34 6 -4.68 6 -4 6 C-3.566875 5.071875 -3.566875 5.071875 -3.125 4.125 C-2 2 -2 2 0 0 Z " fill="#908679" transform="translate(306,186)"/>
<path d="M0 0 C0.66 0 1.32 0 2 0 C1.01 2.97 0.02 5.94 -1 9 C-1.66 9 -2.32 9 -3 9 C-3 9.99 -3 10.98 -3 12 C-3.66 12 -4.32 12 -5 12 C-5.66 14.31 -6.32 16.62 -7 19 C-7.99 19 -8.98 19 -10 19 C-8.31326082 14.50202887 -6.18326108 10.27113698 -4 6 C-3.34 6 -2.68 6 -2 6 C-1.34 4.02 -0.68 2.04 0 0 Z " fill="#4E7BAB" transform="translate(362,140)"/>
<path d="M0 0 C1.26650391 0.00966797 1.26650391 0.00966797 2.55859375 0.01953125 C3.43128906 0.03628906 4.30398437 0.05304688 5.203125 0.0703125 C6.53537109 0.08384766 6.53537109 0.08384766 7.89453125 0.09765625 C10.08100558 0.12116673 12.26692594 0.15402751 14.453125 0.1953125 C14.453125 0.5253125 14.453125 0.8553125 14.453125 1.1953125 C12.98552734 1.37707031 12.98552734 1.37707031 11.48828125 1.5625 C4.3904419 2.46251943 -2.58975817 3.48654696 -9.546875 5.1953125 C-8.546875 2.1953125 -8.546875 2.1953125 -6.76855469 1.02001953 C-4.34266712 0.11950874 -2.57962618 -0.03485981 0 0 Z " fill="#679ED9" transform="translate(240.546875,88.8046875)"/>
<path d="M0 0 C0 0.66 0 1.32 0 2 C0.99 2.33 1.98 2.66 3 3 C3 5 3 7 3 9 C0.28775382 7.38731308 -2.37352812 5.75098126 -5 4 C-5 3.34 -5 2.68 -5 2 C-5.66 1.67 -6.32 1.34 -7 1 C-2.25 0 -2.25 0 0 0 Z " fill="#4C91D9" transform="translate(85,418)"/>
<path d="M0 0 C1 2 1 2 1 6 C-0.175625 6.12375 -0.175625 6.12375 -1.375 6.25 C-2.674375 6.62125 -2.674375 6.62125 -4 7 C-4.69937532 8.31647119 -5.36729133 9.65022151 -6 11 C-8.125 11.75 -8.125 11.75 -10 12 C-9.67 10.68 -9.34 9.36 -9 8 C-8.34 8 -7.68 8 -7 8 C-7 7.34 -7 6.68 -7 6 C-5.46875 4.4921875 -5.46875 4.4921875 -3.5 2.875 C-2.8503125 2.33617187 -2.200625 1.79734375 -1.53125 1.2421875 C-0.77328125 0.62730469 -0.77328125 0.62730469 0 0 Z " fill="#CA9258" transform="translate(317,176)"/>
<path d="M0 0 C0 0.66 0 1.32 0 2 C-6.93 1.505 -6.93 1.505 -14 1 C-14 1.66 -14 2.32 -14 3 C-16.64 3.66 -19.28 4.32 -22 5 C-16.58620763 -1.49655084 -7.84549826 -2.51055944 0 0 Z " fill="#6FA4D6" transform="translate(259,157)"/>
<path d="M0 0 C2.475 0.495 2.475 0.495 5 1 C5 2.65 5 4.3 5 6 C5.99 5.67 6.98 5.34 8 5 C9.4606285 7.64738916 10 8.89448334 10 12 C9.34 12 8.68 12 8 12 C6.0546875 9.8828125 6.0546875 9.8828125 3.875 7.125 C3.15054688 6.22007812 2.42609375 5.31515625 1.6796875 4.3828125 C0 2 0 2 0 0 Z " fill="#E49348" transform="translate(212,279)"/>
<path d="M0 0 C1.32 0.66 2.64 1.32 4 2 C4 2.66 4 3.32 4 4 C3.34 4 2.68 4 2 4 C2 4.66 2 5.32 2 6 C-0.31 7.32 -2.62 8.64 -5 10 C-4.67 7.03 -4.34 4.06 -4 1 C-2.68 1.99 -1.36 2.98 0 4 C0 2.68 0 1.36 0 0 Z " fill="#5494D7" transform="translate(224,144)"/>
<path d="M0 0 C1.32 0.33 2.64 0.66 4 1 C3.67 1.66 3.34 2.32 3 3 C0.57072204 3.64583243 -1.78461099 4.16999412 -4.25 4.625 C-4.91902344 4.7590625 -5.58804687 4.893125 -6.27734375 5.03125 C-9.8962638 5.72801653 -13.31522916 6.15710263 -17 6 C-15.68 5.67 -14.36 5.34 -13 5 C-13 4.34 -13 3.68 -13 3 C-10.69 3 -8.38 3 -6 3 C-5.67 2.34 -5.34 1.68 -5 1 C-3.35 1 -1.7 1 0 1 C0 0.67 0 0.34 0 0 Z " fill="#699FDA" transform="translate(391,434)"/>
<path d="M0 0 C0.66 0.66 1.32 1.32 2 2 C5.20538403 2.37346668 5.20538403 2.37346668 8.9765625 2.4140625 C9.66181 2.43342865 10.3470575 2.4527948 11.05307007 2.4727478 C13.24358644 2.53256831 15.4341553 2.57893756 17.625 2.625 C19.10939802 2.66317763 20.59377384 2.70222924 22.078125 2.7421875 C25.71854685 2.83827084 29.35913436 2.92229282 33 3 C33 3.33 33 3.66 33 4 C21.78 4 10.56 4 -1 4 C-0.67 2.68 -0.34 1.36 0 0 Z " fill="#4F6D8B" transform="translate(307,231)"/>
<path d="M0 0 C0.66 0 1.32 0 2 0 C2.33 1.65 2.66 3.3 3 5 C2.34 5 1.68 5 1 5 C1 13.25 1 21.5 1 30 C0.67 30 0.34 30 0 30 C0 20.1 0 10.2 0 0 Z " fill="#287BD0" transform="translate(254,370)"/>
<path d="M0 0 C0.99 0 1.98 0 3 0 C3 0.99 3 1.98 3 3 C4.65 2.67 6.3 2.34 8 2 C8.66 3.32 9.32 4.64 10 6 C10.66 5.67 11.32 5.34 12 5 C11.67 5.99 11.34 6.98 11 8 C5.53674121 8.36421725 5.53674121 8.36421725 3.25 6.8125 C1.75729191 4.64807327 0.86948482 2.47468755 0 0 Z " fill="#C4905C" transform="translate(224,295)"/>
<path d="M0 0 C0.33 0.99 0.66 1.98 1 3 C2.32 3.33 3.64 3.66 5 4 C2.36 6.64 -0.28 9.28 -3 12 C-3.66 11.01 -4.32 10.02 -5 9 C-4.01 8.67 -3.02 8.34 -2 8 C-0.95550089 4.86650268 -1.06576355 4.01031744 -2 1 C-1.34 0.67 -0.68 0.34 0 0 Z " fill="#337BC8" transform="translate(355,131)"/>
<path d="M0 0 C0.33 0.66 0.66 1.32 1 2 C2.98 2 4.96 2 7 2 C7 2.66 7 3.32 7 4 C7.66 4.33 8.32 4.66 9 5 C9 5.99 9 6.98 9 8 C8.40832031 7.72285156 7.81664062 7.44570312 7.20703125 7.16015625 C1.30953569 4.44225847 1.30953569 4.44225847 -5 3 C-2 1 -2 1 0 0 Z " fill="#69A4DB" transform="translate(267,89)"/>
<path d="M0 0 C0.99 0 1.98 0 3 0 C3 0.99 3 1.98 3 3 C3.66 3 4.32 3 5 3 C5 3.66 5 4.32 5 5 C5.66 5 6.32 5 7 5 C7 5.66 7 6.32 7 7 C7.66 7 8.32 7 9 7 C9 7.66 9 8.32 9 9 C9.66 9 10.32 9 11 9 C11.33 10.98 11.66 12.96 12 15 C7.47619711 10.75036698 3.61682339 6.04479113 0 1 C0 0.67 0 0.34 0 0 Z " fill="#CF935B" transform="translate(190,252)"/>
<path d="M0 0 C3.08089673 2.77280706 4.68775452 5.06326356 6 9 C2.98968256 9.93423645 2.13349732 10.04449911 -1 9 C-1 7.68 -1 6.36 -1 5 C-0.34 5 0.32 5 1 5 C0.67 3.35 0.34 1.7 0 0 Z " fill="#5399DD" transform="translate(256,370)"/>
<path d="M0 0 C4.25209792 4.12324647 8.13635705 8.51282966 12 13 C11.67 13.66 11.34 14.32 11 15 C10.60167969 14.57847656 10.20335937 14.15695312 9.79296875 13.72265625 C9.26316406 13.17480469 8.73335937 12.62695312 8.1875 12.0625 C7.40439453 11.24458984 7.40439453 11.24458984 6.60546875 10.41015625 C4.94187802 8.76480908 4.94187802 8.76480908 2 8 C1.26953125 6.15234375 1.26953125 6.15234375 0.8125 3.9375 C0.65394531 3.20402344 0.49539062 2.47054688 0.33203125 1.71484375 C0.22246094 1.14894531 0.11289063 0.58304687 0 0 Z " fill="#4E7CAA" transform="translate(208,276)"/>
<path d="M0 0 C-1.38188453 3.21043882 -2.92421903 5.04936365 -5.625 7.25 C-6.57246094 8.03117187 -6.57246094 8.03117187 -7.5390625 8.828125 C-8.02117187 9.21484375 -8.50328125 9.6015625 -9 10 C-9 8.68 -9 7.36 -9 6 C-8.01 6 -7.02 6 -6 6 C-6.33 5.01 -6.66 4.02 -7 3 C-5.40442685 -0.19114631 -3.35905282 0 0 0 Z " fill="#589CDC" transform="translate(426,413)"/>
<path d="M0 0 C1.32 0.66 2.64 1.32 4 2 C4 4.31 4 6.62 4 9 C3.01 9 2.02 9 1 9 C1 8.01 1 7.02 1 6 C0.34 6 -0.32 6 -1 6 C-1.042721 4.33388095 -1.04063832 2.66617115 -1 1 C-0.67 0.67 -0.34 0.34 0 0 Z " fill="#CE8C4B" transform="translate(253,276)"/>
<path d="M0 0 C1.125 3.75 1.125 3.75 0 6 C-0.99 6 -1.98 6 -3 6 C-3 6.99 -3 7.98 -3 9 C-4.98 9.33 -6.96 9.66 -9 10 C-8.06409496 8.8944811 -7.12620142 7.79064547 -6.1875 6.6875 C-5.66542969 6.07261719 -5.14335937 5.45773438 -4.60546875 4.82421875 C-3.12827531 3.14575321 -1.59960869 1.56117966 0 0 Z " fill="#EC943F" transform="translate(298,196)"/>
<path d="M0 0 C1.5625 1.25 1.5625 1.25 3 3 C2.6875 5.1875 2.6875 5.1875 2 7 C2.66 7 3.32 7 4 7 C4.33 8.65 4.66 10.3 5 12 C1.71211176 8.88983545 -0.83735988 5.98381075 -3 2 C-2.01 2 -1.02 2 0 2 C0 1.34 0 0.68 0 0 Z " fill="#E39547" transform="translate(185,239)"/>
<path d="M0 0 C0 0.66 0 1.32 0 2 C-5.48675196 3.86783046 -10.22192976 4.2358396 -16 4 C-16 3.34 -16 2.68 -16 2 C-14.08404518 1.66259915 -12.16720278 1.33023588 -10.25 1 C-9.18265625 0.814375 -8.1153125 0.62875 -7.015625 0.4375 C-4 0 -4 0 0 0 Z " fill="#6CA0D7" transform="translate(272,207)"/>
<path d="M0 0 C0 3.10551666 -0.5393715 4.35261084 -2 7 C-2.99 7 -3.98 7 -5 7 C-5 7.66 -5 8.32 -5 9 C-7.375 10.6875 -7.375 10.6875 -10 12 C-10.66 11.67 -11.32 11.34 -12 11 C-8.04 7.37 -4.08 3.74 0 0 Z " fill="#BC9064" transform="translate(352,142)"/>
<path d="M0 0 C1.33895632 1.66215268 2.67130142 3.32963607 4 5 C4.5775 5.721875 5.155 6.44375 5.75 7.1875 C7 9 7 9 7 11 C7.66 11.33 8.32 11.66 9 12 C8.01 12.495 8.01 12.495 7 13 C5 11.75 5 11.75 3 10 C3 8.68 3 7.36 3 6 C1.68 6 0.36 6 -1 6 C-0.67 4.02 -0.34 2.04 0 0 Z " fill="#5B96D6" transform="translate(215,132)"/>
<path d="M0 0 C1.24546405 2.49092811 0.7767578 3.41080733 0 6 C-0.66 6 -1.32 6 -2 6 C-3.73662334 9.22515763 -4.8905928 12.51329166 -6 16 C-6.99 16 -7.98 16 -9 16 C-7.86375209 12.06683414 -6.9140955 9.8020149 -4 7 C-2.57231222 4.71157627 -1.29566426 2.36793812 0 0 Z " fill="#5079AA" transform="translate(333,189)"/>
<path d="M0 0 C0.66 0.33 1.32 0.66 2 1 C-1 6 -4 11 -7 16 C-7.33 15.01 -7.66 14.02 -8 13 C-7.03542166 11.64082143 -6.03145371 10.30915279 -5 9 C-4.29485154 6.85266073 -4.29485154 6.85266073 -4 5 C-3.34 5 -2.68 5 -2 5 C-2 3.68 -2 2.36 -2 1 C-1.34 0.67 -0.68 0.34 0 0 Z " fill="#CF9459" transform="translate(329,192)"/>
<path d="M0 0 C3.76687864 0 4.91190305 0.23537317 8 2 C7.34 2 6.68 2 6 2 C6 2.66 6 3.32 6 4 C3.5 5.625 3.5 5.625 1 7 C0 6 0 6 -0.0625 2.9375 C-0.041875 1.968125 -0.02125 0.99875 0 0 Z " fill="#2A7CD4" transform="translate(294,190)"/>
<path d="M0 0 C3.89648316 0.57725676 6.1697945 2.31875268 9 5 C10.3125 7.75 10.3125 7.75 11 10 C10.01 9.67 9.02 9.34 8 9 C8 8.34 8 7.68 8 7 C7.071875 6.9071875 7.071875 6.9071875 6.125 6.8125 C4 6 4 6 2.875 3.5 C2.441875 2.2625 2.441875 2.2625 2 1 C1.34 0.67 0.68 0.34 0 0 Z " fill="#6EA2DC" transform="translate(260,158)"/>
<path d="M0 0 C0.33 0.99 0.66 1.98 1 3 C-1.19085792 6.74271562 -2.61394449 7.86488057 -6.75 9.3125 C-7.8225 9.539375 -8.895 9.76625 -10 10 C-8.71937515 8.2925002 -7.38232443 6.62626404 -6 5 C-5.34 5 -4.68 5 -4 5 C-4 4.34 -4 3.68 -4 3 C-2 1.375 -2 1.375 0 0 Z " fill="#E29645" transform="translate(344,151)"/>
<path d="M0 0 C3 1 3 1 3.94921875 2.671875 C5.33170943 6.56333025 6.39357798 9.80183483 6 14 C2.59801074 9.95001278 0 5.36373351 0 0 Z " fill="#5798D4" transform="translate(179,124)"/>
<path d="M0 0 C-0.95421808 1.14926266 -1.91352045 2.29430541 -2.875 3.4375 C-3.40867187 4.07558594 -3.94234375 4.71367187 -4.4921875 5.37109375 C-6 7 -6 7 -8 8 C-8.36075949 3.55063291 -8.36075949 3.55063291 -6.8125 1.1875 C-4.44017475 -0.36678206 -2.77958655 -0.22537188 0 0 Z " fill="#ED953E" transform="translate(269,309)"/>
<path d="M0 0 C0.66 0 1.32 0 2 0 C2.103125 0.763125 2.20625 1.52625 2.3125 2.3125 C3.04364039 5.17059424 3.76951913 6.15742885 6 8 C5.67 8.66 5.34 9.32 5 10 C4.01 9.67 3.02 9.34 2 9 C2 8.34 2 7.68 2 7 C1.01 6.67 0.02 6.34 -1 6 C-1.33 5.01 -1.66 4.02 -2 3 C-1.34 3 -0.68 3 0 3 C0 2.01 0 1.02 0 0 Z " fill="#4F91D7" transform="translate(236,182)"/>
<path d="M0 0 C3.33557632 2.9905167 5.15083921 5.93184627 7 10 C6.34 10 5.68 10 5 10 C5 9.34 5 8.68 5 8 C4.34 8 3.68 8 3 8 C2.34 8.66 1.68 9.32 1 10 C0.67 6.7 0.34 3.4 0 0 Z " fill="#5494D7" transform="translate(267,387)"/>
<path d="M0 0 C1.60725635 3.21451269 1.05748185 6.43612536 1 10 C-0.65 10.33 -2.3 10.66 -4 11 C-3.5247412 9.35303396 -3.04468109 7.70745272 -2.5625 6.0625 C-2.29566406 5.14597656 -2.02882812 4.22945313 -1.75390625 3.28515625 C-1 1 -1 1 0 0 Z " fill="#CE9453" transform="translate(249,297)"/>
<path d="M0 0 C0.66 0.33 1.32 0.66 2 1 C0.625 2.5 0.625 2.5 -1 4 C-1.66 4 -2.32 4 -3 4 C-3 4.66 -3 5.32 -3 6 C-5.3125 6.25 -5.3125 6.25 -8 6 C-9.8125 4 -9.8125 4 -11 2 C-9.35 1.67 -7.7 1.34 -6 1 C-6 2.32 -6 3.64 -6 5 C-5.34 5 -4.68 5 -4 5 C-4 4.01 -4 3.02 -4 2 C-2.125 0.9375 -2.125 0.9375 0 0 Z " fill="#4C79AB" transform="translate(241,250)"/>
<path d="M0 0 C1 2 1 2 0.375 5.5 C-1 9 -1 9 -3.625 10.4375 C-4.40875 10.623125 -5.1925 10.80875 -6 11 C-4.54955729 6.89041233 -2.48889248 3.56741255 0 0 Z " fill="#557DAB" transform="translate(351,159)"/>
<path d="M0 0 C0.33 0.66 0.66 1.32 1 2 C0.21625 2.5775 -0.5675 3.155 -1.375 3.75 C-4.05183692 5.73335856 -4.05183692 5.73335856 -5 8.125 C-6.41677764 10.78145807 -8.21507688 11.12055059 -11 12 C-10.401875 11.29875 -9.80375 10.5975 -9.1875 9.875 C-6.89107427 7.0719081 -6.89107427 7.0719081 -5.5 3.75 C-4 1 -4 1 -1.8125 0.125 C-0.9153125 0.063125 -0.9153125 0.063125 0 0 Z " fill="#708396" transform="translate(339,154)"/>
<path d="M0 0 C0 0.99 0 1.98 0 3 C-3.0455314 5.78448585 -6.32731347 8.11402583 -10 10 C-10.66 9.67 -11.32 9.34 -12 9 C-10.625 7.5 -10.625 7.5 -9 6 C-8.34 6 -7.68 6 -7 6 C-7 5.34 -7 4.68 -7 4 C-2.52941176 0 -2.52941176 0 0 0 Z " fill="#71A2DC" transform="translate(89,72)"/>
<path d="M0 0 C1.65 0.33 3.3 0.66 5 1 C3.02 3.31 1.04 5.62 -1 8 C-2 4 -2 4 -1.0625 1.75 C-0.711875 1.1725 -0.36125 0.595 0 0 Z " fill="#277ED0" transform="translate(258,228)"/>
<path d="M0 0 C0.66 0.33 1.32 0.66 2 1 C1.38125 1.556875 0.7625 2.11375 0.125 2.6875 C-2.12786652 4.8432924 -2.12786652 4.8432924 -2.9375 7.5625 C-4.30678738 10.70380633 -5.9950767 11.49753835 -9 13 C-9 12.01 -9 11.02 -9 10 C-7.67218122 8.9926892 -6.33790641 7.99387334 -5 7 C-3.9590934 5.35857037 -2.95495674 3.69287785 -2 2 C-1.34 1.34 -0.68 0.68 0 0 Z " fill="#BF8E5E" transform="translate(278,214)"/>
<path d="M0 0 C0.33 0 0.66 0 1 0 C1.04898437 0.67546875 1.09796875 1.3509375 1.1484375 2.046875 C1.22320312 2.93890625 1.29796875 3.8309375 1.375 4.75 C1.44460938 5.63171875 1.51421875 6.5134375 1.5859375 7.421875 C1.99850055 9.99066382 2.71160957 11.75841015 4 14 C3.01 14.33 2.02 14.66 1 15 C0.67 15.99 0.34 16.98 0 18 C0 12.06 0 6.12 0 0 Z " fill="#69A1DD" transform="translate(293,169)"/>
<path d="M0 0 C2.58926331 2.58926331 2.37398043 4.02705279 2.625 7.625 C2.69976562 8.62789062 2.77453125 9.63078125 2.8515625 10.6640625 C2.90054687 11.43492188 2.94953125 12.20578125 3 13 C2.34 13 1.68 13 1 13 C0.63447197 11.58622218 0.28304505 10.16879424 -0.0625 8.75 C-0.25972656 7.96109375 -0.45695312 7.1721875 -0.66015625 6.359375 C-1.01497267 3.89605178 -0.76877544 2.34395868 0 0 Z " fill="#5D9ADA" transform="translate(439,111)"/>
<path d="M0 0 C0.66 0.66 1.32 1.32 2 2 C1.9765625 4.6015625 1.9765625 4.6015625 1.625 7.625 C1.51414063 8.62789062 1.40328125 9.63078125 1.2890625 10.6640625 C1.19367188 11.43492188 1.09828125 12.20578125 1 13 C-1.35302007 10.64697993 -1.39392208 9.72564705 -1.75 6.5 C-1.84796875 5.7059375 -1.9459375 4.911875 -2.046875 4.09375 C-2 2 -2 2 0 0 Z " fill="#2376D4" transform="translate(212,112)"/>
<path d="M0 0 C1.32 0.66 2.64 1.32 4 2 C-0.625 7.875 -0.625 7.875 -4 9 C-4.33 7.68 -4.66 6.36 -5 5 C-3.35 4.67 -1.7 4.34 0 4 C0 2.68 0 1.36 0 0 Z " fill="#E79641" transform="translate(249,324)"/>
<path d="M0 0 C1.21940083 3.6582025 0.63709904 4.58448676 -0.8125 8.0625 C-1.16957031 8.94035156 -1.52664062 9.81820313 -1.89453125 10.72265625 C-3 13 -3 13 -5 15 C-5 13.35 -5 11.7 -5 10 C-4.34 10 -3.68 10 -3 10 C-3.061875 9.278125 -3.12375 8.55625 -3.1875 7.8125 C-2.96476068 4.47141026 -1.8717754 2.72967245 0 0 Z " fill="#507AA4" transform="translate(240,316)"/>
<path d="M0 0 C0.66 0.33 1.32 0.66 2 1 C-0.31 4.96 -2.62 8.92 -5 13 C-5.66 11.68 -6.32 10.36 -7 9 C-5.625 7 -5.625 7 -4 5 C-3.34 5 -2.68 5 -2 5 C-2 4.01 -2 3.02 -2 2 C-1.34 2 -0.68 2 0 2 C0 1.34 0 0.68 0 0 Z " fill="#DF984C" transform="translate(349,159)"/>
<path d="M0 0 C0.66 0 1.32 0 2 0 C2 0.66 2 1.32 2 2 C3.32 1.67 4.64 1.34 6 1 C7.09658936 4.28976808 6.79953138 5.71303767 6 9 C3.59927045 6.11912454 1.52708963 3.43595166 0 0 Z " fill="#569ADC" transform="translate(271,374)"/>
<path d="M0 0 C2.19510603 0.25361783 4.38228739 0.57765908 6.5625 0.9375 C8.35880859 1.22947266 8.35880859 1.22947266 10.19140625 1.52734375 C11.11824219 1.68332031 12.04507813 1.83929688 13 2 C13 2.33 13 2.66 13 3 C11.62714844 3.07347656 11.62714844 3.07347656 10.2265625 3.1484375 C9.03804687 3.22320312 7.84953125 3.29796875 6.625 3.375 C4.84996094 3.47941406 4.84996094 3.47941406 3.0390625 3.5859375 C-0.10562319 3.70217346 -0.10562319 3.70217346 -2 6 C-1.125 1.125 -1.125 1.125 0 0 Z " fill="#2B76C1" transform="translate(241,344)"/>
<path d="M0 0 C0.99 0 1.98 0 3 0 C2.49904971 4.34156921 -0.10523005 6.89846077 -3 10 C-3.99 10.33 -4.98 10.66 -6 11 C-6 10.34 -6 9.68 -6 9 C-5.195625 8.401875 -4.39125 7.80375 -3.5625 7.1875 C-0.70289198 4.7463712 -0.3046813 3.65617562 0 0 Z " fill="#CB9257" transform="translate(295,278)"/>
<path d="M0 0 C0.66 0 1.32 0 2 0 C2 4.29 2 8.58 2 13 C0.02 13.99 0.02 13.99 -2 15 C-1.125 10.25 -1.125 10.25 0 8 C0.0689472 6.62657169 0.08467708 5.24997898 0.0625 3.875 C0.041875 2.59625 0.02125 1.3175 0 0 Z " fill="#2F7CCE" transform="translate(363,134)"/>
<path d="M0 0 C0.33 0 0.66 0 1 0 C1.33 4.62 1.66 9.24 2 14 C-2.5 9.5 -2.5 9.5 -3 5 C-2.01 5.495 -2.01 5.495 -1 6 C-0.67 4.02 -0.34 2.04 0 0 Z " fill="#64A3E8" transform="translate(213,117)"/>
<path d="M0 0 C0.33 0.66 0.66 1.32 1 2 C0.34 2 -0.32 2 -1 2 C-0.67 3.98 -0.34 5.96 0 8 C-0.66 8 -1.32 8 -2 8 C-2 7.01 -2 6.02 -2 5 C-3.32 5.33 -4.64 5.66 -6 6 C-6 5.34 -6 4.68 -6 4 C-5.34 4 -4.68 4 -4 4 C-3.67 3.01 -3.34 2.02 -3 1 C-2.01 0.67 -1.02 0.34 0 0 Z " fill="#3D7CC1" transform="translate(280,300)"/>
<path d="M0 0 C0.66 0 1.32 0 2 0 C1.44894091 3.9492568 0.61064629 7.34920174 -1 11 C-2.24546405 8.50907189 -1.7767578 7.58919267 -1 5 C-1.99 5.33 -2.98 5.66 -4 6 C-4 5.34 -4 4.68 -4 4 C-3.01 4 -2.02 4 -1 4 C-0.67 2.68 -0.34 1.36 0 0 Z " fill="#5278A5" transform="translate(252,282)"/>
<path d="M0 0 C0.66 0.33 1.32 0.66 2 1 C0.61990379 4.33523252 -0.84950652 6.18607951 -4 8 C-4.99 7.67 -5.98 7.34 -7 7 C-4.69 4.69 -2.38 2.38 0 0 Z " fill="#EF943F" transform="translate(267,227)"/>
<path d="M0 0 C2.475 0.99 2.475 0.99 5 2 C4.67 2.99 4.34 3.98 4 5 C3.67 4.34 3.34 3.68 3 3 C1.35 4.32 -0.3 5.64 -2 7 C-2.33 6.34 -2.66 5.68 -3 5 C-1.5625 2.375 -1.5625 2.375 0 0 Z " fill="#70A7D7" transform="translate(217,197)"/>
<path d="M0 0 C0 1.98 0 3.96 0 6 C-1.98 6.66 -3.96 7.32 -6 8 C-6 5 -6 5 -3.5625 2.3125 C-1 0 -1 0 0 0 Z " fill="#EC943D" transform="translate(327,168)"/>
<path d="M0 0 C0.99 0 1.98 0 3 0 C3 0.99 3 1.98 3 3 C3.66 2.01 4.32 1.02 5 0 C6.5625 2.375 6.5625 2.375 8 5 C7.67 5.66 7.34 6.32 7 7 C6.34 6.67 5.68 6.34 5 6 C5 5.34 5 4.68 5 4 C3.35 3.67 1.7 3.34 0 3 C0 2.01 0 1.02 0 0 Z " fill="#4D94DD" transform="translate(136,117)"/>
<path d="M0 0 C0.66 0 1.32 0 2 0 C2 0.66 2 1.32 2 2 C2.66 2 3.32 2 4 2 C4 2.66 4 3.32 4 4 C4.66 4 5.32 4 6 4 C7.625 6.5 7.625 6.5 9 9 C8.01 9.495 8.01 9.495 7 10 C7 9.34 7 8.68 7 8 C5.68 7.34 4.36 6.68 3 6 C3 5.34 3 4.68 3 4 C2.34 4 1.68 4 1 4 C0.67 2.68 0.34 1.36 0 0 Z " fill="#81B3E0" transform="translate(418,78)"/>
<path d="M0 0 C0.99 0 1.98 0 3 0 C2.67 1.65 2.34 3.3 2 5 C1.34 5 0.68 5 0 5 C-0.33 5.99 -0.66 6.98 -1 8 C-1.66 8 -2.32 8 -3 8 C-1.125 2.25 -1.125 2.25 0 0 Z " fill="#5598D3" transform="translate(235,162)"/>
<path d="M0 0 C3.53790403 3.69172595 3.59115883 7.09390595 4 12 C1.03947516 8.63576723 0.07710178 5.30840713 -1 1 C-0.67 0.67 -0.34 0.34 0 0 Z " fill="#659ED9" transform="translate(194,154)"/>
<path d="M0 0 C0 0.66 0 1.32 0 2 C-4.29 2.66 -8.58 3.32 -13 4 C-12 2 -12 2 -9.3125 0.875 C-6.0420565 0.01110926 -3.36293818 -0.16013991 0 0 Z " fill="#5594D6" transform="translate(112,63)"/>
<path d="M0 0 C0.33 0.66 0.66 1.32 1 2 C0.34 2 -0.32 2 -1 2 C-1.226875 2.61875 -1.45375 3.2375 -1.6875 3.875 C-3.37929835 6.61410209 -4.99244161 7.05024472 -8 8 C-4 1.42857143 -4 1.42857143 0 0 Z " fill="#337BC4" transform="translate(319,261)"/>
<path d="M0 0 C0.33 0.66 0.66 1.32 1 2 C-0.65 4.31 -2.3 6.62 -4 9 C-4.99 8.34 -5.98 7.68 -7 7 C-4.69 4.69 -2.38 2.38 0 0 Z " fill="#EC9640" transform="translate(259,235)"/>
<path d="M0 0 C2.0625 0.4375 2.0625 0.4375 4 1 C3.42647107 4.87132028 1.51295648 7.08172796 -1 10 C-0.33333333 7.33333333 0.33333333 4.66666667 1 2 C0.34 1.67 -0.32 1.34 -1 1 C-0.67 0.67 -0.34 0.34 0 0 Z " fill="#D19355" transform="translate(332,182)"/>
<path d="M0 0 C0.66 1.32 1.32 2.64 2 4 C0.71034824 5.37562854 -0.62689293 6.70766393 -2 8 C-2.66 8 -3.32 8 -4 8 C-2.87548273 5.0280615 -1.77706209 2.66559313 0 0 Z " fill="#2879D5" transform="translate(264,114)"/>
<path d="M0 0 C2.8125 -0.3125 2.8125 -0.3125 6 0 C7.875 2.5 7.875 2.5 9 5 C5.22454612 3.90931332 2.52956528 3.0916909 0 0 Z " fill="#669CDA" transform="translate(88,427)"/>
<path d="M0 0 C2.4375 1.125 2.4375 1.125 5 3 C5.8125 6.1875 5.8125 6.1875 6 9 C2.91910327 6.22719294 1.31224548 3.93673644 0 0 Z " fill="#73A9DB" transform="translate(67,404)"/>
<path d="M0 0 C0.33 0.66 0.66 1.32 1 2 C0.67 2.66 0.34 3.32 0 4 C-0.99 4 -1.98 4 -3 4 C-3 4.66 -3 5.32 -3 6 C-3.66 6 -4.32 6 -5 6 C-5.33 6.66 -5.66 7.32 -6 8 C-5.8125 5.125 -5.8125 5.125 -5 2 C-2.4375 0.625 -2.4375 0.625 0 0 Z " fill="#CB9357" transform="translate(251,282)"/>
<path d="M0 0 C-0.33 1.65 -0.66 3.3 -1 5 C-2.98 4.34 -4.96 3.68 -7 3 C-4.49955934 -0.00052879 -4.2621484 0 0 0 Z " fill="#237BD7" transform="translate(285,202)"/>
<path d="M0 0 C1.65 0.33 3.3 0.66 5 1 C5 1.99 5 2.98 5 4 C0.25 5.125 0.25 5.125 -2 4 C-1.34 2.68 -0.68 1.36 0 0 Z " fill="#4B98DF" transform="translate(242,131)"/>
<path d="M0 0 C2.475 0.495 2.475 0.495 5 1 C4.01 2.98 3.02 4.96 2 7 C0 4 0 4 0 0 Z " fill="#5295DC" transform="translate(427,404)"/>
<path d="M0 0 C0 0.99 0 1.98 0 3 C-0.99 3.33 -1.98 3.66 -3 4 C-3 5.32 -3 6.64 -3 8 C-4.32 7.67 -5.64 7.34 -7 7 C-5.54744301 3.17053157 -3.57104439 1.87949705 0 0 Z " fill="#DC934C" transform="translate(251,243)"/>
<path d="M0 0 C1.98 0 3.96 0 6 0 C4.625 2 4.625 2 3 4 C2.34 4 1.68 4 1 4 C0.67 4.66 0.34 5.32 0 6 C0 4.02 0 2.04 0 0 Z " fill="#2F7AC5" transform="translate(309,178)"/>
<path d="M0 0 C0.99 0 1.98 0 3 0 C3 1.98 3 3.96 3 6 C2.01 6.33 1.02 6.66 0 7 C0 4.69 0 2.38 0 0 Z " fill="#518DD0" transform="translate(203,172)"/>
<path d="M0 0 C0.99 0.33 1.98 0.66 3 1 C3 1.99 3 2.98 3 4 C3.99 4.33 4.98 4.66 6 5 C6 6.98 6 8.96 6 11 C4.01388388 9.01388388 3.08545288 7.55856751 2 5 C2 4.01 2 3.02 2 2 C1.34 2 0.68 2 0 2 C0 1.34 0 0.68 0 0 Z " fill="#6FA4DA" transform="translate(283,103)"/>
<path d="M0 0 C2.97 0.495 2.97 0.495 6 1 C1.25 5 1.25 5 -1 5 C-0.67 3.35 -0.34 1.7 0 0 Z " fill="#679FDD" transform="translate(406,426)"/>
<path d="M0 0 C0.99 0.33 1.98 0.66 3 1 C3 1.66 3 2.32 3 3 C2.34 3 1.68 3 1 3 C1 6.63 1 10.26 1 14 C0.67 14 0.34 14 0 14 C0 9.38 0 4.76 0 0 Z " fill="#518DC7" transform="translate(253,367)"/>
<path d="M0 0 C0.33 0.99 0.66 1.98 1 3 C1.66 3 2.32 3 3 3 C2.67 4.32 2.34 5.64 2 7 C1.34 7 0.68 7 0 7 C-0.33 6.01 -0.66 5.02 -1 4 C-1.66 3.67 -2.32 3.34 -3 3 C-2.01 2.01 -1.02 1.02 0 0 Z " fill="#2E7CCD" transform="translate(294,285)"/>
<path d="M0 0 C0.33 0.66 0.66 1.32 1 2 C-3.75 6 -3.75 6 -6 6 C-6.33 4.35 -6.66 2.7 -7 1 C-6.401875 1.20625 -5.80375 1.4125 -5.1875 1.625 C-2.71549154 2.30671915 -2.71549154 2.30671915 0 0 Z " fill="#D29452" transform="translate(327,250)"/>
<path d="M0 0 C0 1.32 0 2.64 0 4 C0.66 4.33 1.32 4.66 2 5 C1.67 6.32 1.34 7.64 1 9 C-1.475 5.04 -1.475 5.04 -4 1 C-2 0 -2 0 0 0 Z " fill="#E2964B" transform="translate(180,232)"/>
<path d="M0 0 C1 2 1 2 0.3125 4.4375 C-1.10829685 7.21143671 -2.39746148 8.35172561 -5 10 C-3.84414715 6.08788267 -2.64465038 3.1254959 0 0 Z " fill="#4C7AAB" transform="translate(339,179)"/>
<path d="M0 0 C2.475 0.495 2.475 0.495 5 1 C3.8141763 4.37503669 2.72426311 6.64722731 0 9 C0 7.68 0 6.36 0 5 C0.66 5 1.32 5 2 5 C2 3.68 2 2.36 2 1 C1.34 0.67 0.68 0.34 0 0 Z " fill="#75ABE2" transform="translate(212,155)"/>
<path d="M0 0 C1.65 0 3.3 0 5 0 C4.01 1.485 4.01 1.485 3 3 C2.34 3 1.68 3 1 3 C0.67 3.99 0.34 4.98 0 6 C-0.66 5.67 -1.32 5.34 -2 5 C-1.34 3.35 -0.68 1.7 0 0 Z " fill="#4C8DD4" transform="translate(288,130)"/>
<path d="M0 0 C0.33 0.66 0.66 1.32 1 2 C1.66 2.33 2.32 2.66 3 3 C1.02 5.97 1.02 5.97 -1 9 C-1.66 7.68 -2.32 6.36 -3 5 C-2.34 5 -1.68 5 -1 5 C-0.67 3.35 -0.34 1.7 0 0 Z " fill="#589DDB" transform="translate(220,97)"/>
<path d="M0 0 C0.99 0.33 1.98 0.66 3 1 C3 2.32 3 3.64 3 5 C0.5625 4.625 0.5625 4.625 -2 4 C-2.33 3.34 -2.66 2.68 -3 2 C-2.01 1.34 -1.02 0.68 0 0 Z " fill="#3D8FE3" transform="translate(397,65)"/>
<path d="M0 0 C0.99 0.33 1.98 0.66 3 1 C1.68 2.65 0.36 4.3 -1 6 C-2.32 5.67 -3.64 5.34 -5 5 C-4.01 5 -3.02 5 -2 5 C-2 4.01 -2 3.02 -2 2 C-1.34 2 -0.68 2 0 2 C0 1.34 0 0.68 0 0 Z " fill="#E39946" transform="translate(235,296)"/>
<path d="M0 0 C0.66 0.33 1.32 0.66 2 1 C1.34 2.65 0.68 4.3 0 6 C-1.65 6 -3.3 6 -5 6 C-3.35 4.02 -1.7 2.04 0 0 Z " fill="#4B7DB1" transform="translate(301,277)"/>
<path d="M0 0 C2.31 0 4.62 0 7 0 C6.34 0.66 5.68 1.32 5 2 C6.32 2.66 7.64 3.32 9 4 C7.02 4 5.04 4 3 4 C2.67 3.01 2.34 2.02 2 1 C1.34 0.67 0.68 0.34 0 0 Z " fill="#438DD4" transform="translate(232,208)"/>
<path d="M0 0 C2.0625 0.4375 2.0625 0.4375 4 1 C1.03 3.475 1.03 3.475 -2 6 C-1.125 1.125 -1.125 1.125 0 0 Z " fill="#297DD0" transform="translate(291,197)"/>
<path d="M0 0 C1.32 0 2.64 0 4 0 C4 2.31 4 4.62 4 7 C0 2.25 0 2.25 0 0 Z " fill="#5D9BD7" transform="translate(286,154)"/>
<path d="M0 0 C0.66 0 1.32 0 2 0 C3.06775224 1.96466413 4.06553465 3.96855359 5 6 C4.67 6.66 4.34 7.32 4 8 C2 6.25 2 6.25 0 4 C0 2.68 0 1.36 0 0 Z " fill="#72A6D9" transform="translate(150,139)"/>
<path d="M0 0 C2.16419412 4.32838824 2.20068706 5.49742351 1 10 C0.01 10.495 0.01 10.495 -1 11 C-0.67 7.37 -0.34 3.74 0 0 Z " fill="#669CD7" transform="translate(59,112)"/>
<path d="M0 0 C1.98 0.495 1.98 0.495 4 1 C3.525625 1.598125 3.05125 2.19625 2.5625 2.8125 C0.83534256 5.00382924 0.83534256 5.00382924 0 8 C-0.79953138 4.71303767 -1.09658936 3.28976808 0 0 Z " fill="#247ACF" transform="translate(178,114)"/>
<path d="M0 0 C0.99 0 1.98 0 3 0 C3 2.31 3 4.62 3 7 C1.68 6.01 0.36 5.02 -1 4 C-0.67 2.68 -0.34 1.36 0 0 Z " fill="#569CD5" transform="translate(280,96)"/>
<path d="M0 0 C1.65 0 3.3 0 5 0 C5 0.66 5 1.32 5 2 C5.66 2.33 6.32 2.66 7 3 C7 3.99 7 4.98 7 6 C5.68 5.34 4.36 4.68 3 4 C3 3.01 3 2.02 3 1 C2.01 0.67 1.02 0.34 0 0 Z " fill="#4F8FD4" transform="translate(269,91)"/>
<path d="M0 0 C3.36591866 1.44253657 5.51047079 3.33264727 8 6 C7.01 6.495 7.01 6.495 6 7 C5.34 6.34 4.68 5.68 4 5 C2.68252676 4.30251417 1.35085807 3.63040043 0 3 C0 2.01 0 1.02 0 0 Z " fill="#7BAEDF" transform="translate(410,72)"/>
<path d="M0 0 C0.99 0 1.98 0 3 0 C3 0.66 3 1.32 3 2 C3.66 2 4.32 2 5 2 C5.33 3.65 5.66 5.3 6 7 C1.125 2.25 1.125 2.25 0 0 Z " fill="#C9925C" transform="translate(204,270)"/>
</svg>
